<svg width="292" height="277" viewBox="0 0 292 277" fill="none" xmlns="http://www.w3.org/2000/svg">
<path d="M267.904 73.5428C255.225 78.538 257.498 90.6733 260.22 96.1165C262.781 96.1165 268.769 96.5969 272.227 98.5181C276.55 100.92 292.4 92.2741 291.919 85.0697C291.439 77.8653 283.754 67.2988 267.904 73.5428Z" fill="#7FAAFE"/>
<path d="M94.8569 30.0347C93.4259 26.6952 101.284 21.7523 105.392 19.6982C106.982 20.4933 110.679 22.6004 112.747 24.6677C115.331 27.2518 113.939 30.0347 110.163 34.8053C106.386 39.576 96.6456 34.209 94.8569 30.0347Z" fill="#D4E3FF"/>
<path d="M192.347 1.10199C188.895 1.10181 190.695 7.85793 190.696 8.60834C192.039 8.86176 195.371 9.38607 197.957 9.45596C201.19 9.54333 202.405 2.90371 200.904 1.10199C199.403 -0.699726 195.8 1.10218 192.347 1.10199Z" fill="#EAF1FF"/>
<ellipse cx="11.058" cy="67.6375" rx="5.00798" ry="9.82353" transform="rotate(-58.2159 11.058 67.6375)" fill="#93B8FE"/>
<path d="M10.5758 234.919C2.11437 238.841 10.1459 250.484 15.2194 255.815C21.3246 256.331 34.8249 256.279 39.9843 251.945C46.4335 246.528 36.1147 241.627 30.6974 236.467C25.28 231.308 21.1526 230.018 10.5758 234.919Z" fill="#D4E3FF"/>
<path d="M62.1145 148.001C59.0129 147.484 58.5253 150.801 58.6692 152.524C62.977 160.062 64.6995 157.908 65.7764 152.524C66.8533 147.139 65.9916 148.647 62.1145 148.001Z" fill="#D4E3FF"/>
<path d="M142.099 266.695C139.554 263.401 136.921 268.068 135.922 270.813C137.607 276.802 140.976 276.802 145.281 275.305C149.586 273.807 145.281 270.813 142.099 266.695Z" fill="#D4E3FF"/>
<path d="M273.136 252.409C264.586 256.684 267.792 262.287 270.464 264.555C275.322 264.15 285.33 262.174 286.496 257.51C287.954 251.68 283.824 247.065 273.136 252.409Z" fill="#D4E3FF"/>
</svg>
