<svg width="401" height="403" viewBox="0 0 401 403" fill="none" xmlns="http://www.w3.org/2000/svg">
<path d="M236.37 67.9814C231.382 80.6639 241.811 87.2722 247.649 88.991C249.395 87.1168 253.828 83.063 257.591 81.8422C262.294 80.3161 266.772 62.826 261.173 58.2667C255.574 53.7074 242.604 52.1282 236.37 67.9814Z" fill="#7FAAFE"/>
<path d="M86.5809 164.944C83.162 163.715 84.9016 154.596 86.1988 150.19C87.8645 149.569 91.9263 148.3 94.848 148.196C98.5002 148.067 99.588 150.982 100.504 156.997C101.421 163.012 90.8546 166.481 86.5809 164.944Z" fill="#D4E3FF"/>
<path d="M131.863 73.8893C129.509 76.4154 135.68 79.7029 136.23 80.2141C137.33 79.4042 139.985 77.3232 141.799 75.4786C144.067 73.1728 140.037 67.7578 137.695 67.6282C135.354 67.4985 134.216 71.3631 131.863 73.8893Z" fill="#EAF1FF"/>
<ellipse cx="56.9757" cy="251.891" rx="5.00798" ry="9.82353" transform="rotate(-105.245 56.9757 251.891)" fill="#93B8FE"/>
<path d="M179.047 366.268C176.149 375.132 190.143 377.191 197.502 377.113C202.041 372.997 211.205 363.084 211.551 356.355C211.983 347.943 201.363 352.152 193.895 352.599C186.428 353.047 182.67 355.187 179.047 366.268Z" fill="#D4E3FF"/>
<path d="M150.579 269.311C148.087 271.228 150.181 273.845 151.54 274.915C159.992 276.901 159.59 274.172 156.385 269.714C153.179 265.256 153.695 266.914 150.579 269.311Z" fill="#D4E3FF"/>
<path d="M291.947 291.691C287.802 291.308 289.422 296.415 290.75 299.017C296.281 301.867 298.577 299.402 300.416 295.231C302.254 291.061 297.129 292.17 291.947 291.691Z" fill="#D4E3FF"/>
<path d="M370.812 186.073C368.112 195.244 374.398 196.717 377.878 196.307C380.893 192.476 386.269 183.807 383.651 179.775C380.379 174.734 374.187 174.61 370.812 186.073Z" fill="#D4E3FF"/>
</svg>
