<svg width="380" height="387" viewBox="0 0 380 387" fill="none" xmlns="http://www.w3.org/2000/svg">
<path d="M76.4925 114.859C86.7336 123.85 96.4857 116.278 100.082 111.368C98.9101 109.091 96.5988 103.546 96.7257 99.5921C96.8843 94.6496 81.9472 84.5088 75.7601 88.2308C69.573 91.9528 63.6911 103.62 76.4925 114.859Z" fill="#7FAAFE"/>
<path d="M116.944 288.646C114.629 291.446 106.639 286.719 102.934 284.005C102.914 282.227 103.096 277.976 103.989 275.192C105.106 271.712 108.217 271.676 114.187 272.853C120.156 274.03 119.838 285.146 116.944 288.646Z" fill="#D4E3FF"/>
<path d="M46.6277 215.182C48.2066 218.252 53.3911 213.561 54.0583 213.217C53.6694 211.907 52.6116 208.704 51.491 206.372C50.0903 203.457 43.6299 205.413 42.7142 207.572C41.7986 209.731 45.0488 212.111 46.6277 215.182Z" fill="#EAF1FF"/>
<ellipse cx="188.709" cy="345.97" rx="5.00798" ry="9.82353" transform="rotate(-175.432 188.709 345.97)" fill="#93B8FE"/>
<path d="M337.691 269.893C345.048 275.624 351.729 263.157 354.15 256.207C351.816 250.542 345.596 238.56 339.382 235.954C331.615 232.696 331.976 244.114 329.865 251.291C327.755 258.469 328.495 262.729 337.691 269.893Z" fill="#D4E3FF"/>
<path d="M236.824 263.812C237.783 266.807 240.956 265.724 242.422 264.808C247.156 257.529 244.453 256.982 239.172 258.487C233.891 259.992 235.626 260.069 236.824 263.812Z" fill="#D4E3FF"/>
<path d="M305.797 138.399C304.032 142.169 309.386 142.376 312.284 142.008C316.84 137.771 315.299 134.775 311.999 131.632C308.698 128.488 308.004 133.686 305.797 138.399Z" fill="#D4E3FF"/>
<path d="M233.164 28.4024C240.876 34.0509 244.392 28.6369 245.186 25.2238C242.605 21.0887 236.27 13.0924 231.59 14.1885C225.739 15.5587 223.523 21.3419 233.164 28.4024Z" fill="#D4E3FF"/>
</svg>
