<svg width="501" height="501" viewBox="0 0 501 501" fill="none" xmlns="http://www.w3.org/2000/svg">
<path d="M245.898 480.216C370.19 480.216 470.948 422.045 470.948 350.286C470.948 278.528 370.19 220.356 245.898 220.356C121.606 220.356 20.8479 278.528 20.8479 350.286C20.8479 422.045 121.606 480.216 245.898 480.216Z" fill="#F5F5F5"/>
<path d="M284.418 421.726C307.271 421.726 325.798 411.03 325.798 397.836C325.798 384.642 307.271 373.946 284.418 373.946C261.564 373.946 243.038 384.642 243.038 397.836C243.038 411.03 261.564 421.726 284.418 421.726Z" fill="#E0E0E0"/>
<path d="M392.068 407.576C414.922 407.576 433.448 396.88 433.448 383.686C433.448 370.492 414.922 359.796 392.068 359.796C369.214 359.796 350.688 370.492 350.688 383.686C350.688 396.88 369.214 407.576 392.068 407.576Z" fill="#E0E0E0"/>
<path d="M165.728 457.546C188.581 457.546 207.108 446.85 207.108 433.656C207.108 420.462 188.581 409.766 165.728 409.766C142.874 409.766 124.348 420.462 124.348 433.656C124.348 446.85 142.874 457.546 165.728 457.546Z" fill="#E0E0E0"/>
<path d="M97.9081 355.096C97.9081 355.096 96.8281 329.836 86.2381 315.776C75.6481 301.716 62.6681 299.696 56.2381 303.656C51.5381 306.536 52.1681 315.096 60.2981 320.656C68.4281 326.216 84.0981 340.466 86.5481 349.756L97.9081 355.096Z" fill="#37474F"/>
<path d="M90.908 351.416C90.7364 351.403 90.5767 351.324 90.4627 351.195C90.3488 351.066 90.2897 350.898 90.298 350.726C91.388 327.806 71.298 313.516 65.828 310.946C65.671 310.872 65.5494 310.74 65.4895 310.577C65.4297 310.414 65.4363 310.234 65.508 310.076C65.5838 309.918 65.7184 309.797 65.8828 309.737C66.0473 309.677 66.2286 309.684 66.388 309.756C71.998 312.416 92.728 327.146 91.608 350.756C91.5977 350.929 91.5194 351.092 91.3903 351.208C91.2611 351.324 91.0914 351.384 90.918 351.376L90.908 351.416Z" fill="white"/>
<path d="M92.908 347.116C91.4642 347.097 90.076 346.557 88.998 345.596C87.768 344.246 87.868 342.176 87.298 340.436C86.368 337.576 83.548 335.636 80.608 335.026C77.627 334.561 74.5799 334.766 71.688 335.626C65.788 337.076 60.118 333.446 54.208 333.876C52.0756 333.945 50.0018 334.591 48.208 335.746C47.3233 336.331 46.5984 337.128 46.0991 338.064C45.5997 339 45.3416 340.045 45.348 341.106C45.5507 342.862 46.4252 344.471 47.788 345.596C49.1546 346.719 50.6604 347.66 52.268 348.396L57.458 351.046C58.3552 351.445 59.1825 351.985 59.908 352.646C60.5937 353.381 61.1109 354.256 61.4235 355.211C61.7361 356.167 61.8366 357.178 61.718 358.176C61.318 360.176 59.718 361.696 59.208 363.656C58.578 366.226 60.148 368.976 62.408 370.366C64.7554 371.637 67.435 372.16 70.088 371.866C72.738 371.716 75.358 371.186 78.008 371.136C79.801 371.008 81.5928 371.4 83.168 372.266C84.9469 373.554 86.2286 375.415 86.798 377.536C87.1415 378.897 87.6876 380.198 88.418 381.396C89.3186 382.535 90.5314 383.386 91.908 383.846C94.5707 384.826 97.4954 384.826 100.158 383.846C102.348 383.006 103.418 380.536 104.238 378.396C105.057 376.156 105.448 373.781 105.388 371.396C105.262 365.266 103.877 359.228 101.318 353.656C100.088 351.096 98.318 348.536 95.598 347.656C94.7171 347.405 93.8176 347.225 92.908 347.116Z" fill="#455A64"/>
<path d="M98.5881 374.596C98.4672 374.596 98.3492 374.559 98.2506 374.489C98.152 374.419 98.0777 374.32 98.0381 374.206C91.8681 356.516 62.6781 341.126 52.0381 339.356C51.9626 339.344 51.8903 339.316 51.8253 339.276C51.7603 339.235 51.7039 339.183 51.6593 339.12C51.6148 339.058 51.5829 338.988 51.5655 338.913C51.5481 338.839 51.5456 338.762 51.5581 338.686C51.5706 338.611 51.5978 338.538 51.6382 338.473C51.6786 338.408 51.7315 338.352 51.7937 338.307C51.8559 338.263 51.9263 338.231 52.0008 338.213C52.0753 338.196 52.1526 338.194 52.2281 338.206C63.1081 340.006 92.8781 355.736 99.2281 373.816C99.2548 373.889 99.2667 373.966 99.263 374.044C99.2593 374.121 99.2401 374.197 99.2066 374.267C99.173 374.337 99.1258 374.4 99.0676 374.451C99.0095 374.502 98.9416 374.541 98.8681 374.566C98.7782 374.597 98.6825 374.607 98.5881 374.596Z" fill="white"/>
<path d="M72.348 364.896C72.2363 364.887 72.1297 364.845 72.041 364.777C71.9524 364.708 71.8855 364.615 71.8485 364.51C71.8115 364.404 71.8059 364.29 71.8324 364.181C71.8589 364.072 71.9165 363.973 71.998 363.896C76.7709 360.594 82.4152 358.781 88.218 358.686C88.36 358.705 88.4904 358.774 88.5848 358.882C88.6793 358.99 88.7314 359.128 88.7314 359.271C88.7314 359.414 88.6793 359.553 88.5848 359.66C88.4904 359.768 88.36 359.837 88.218 359.856C82.6675 359.99 77.2743 361.727 72.688 364.856C72.581 364.902 72.4628 364.916 72.348 364.896Z" fill="white"/>
<path d="M98.9078 388.276C98.279 387.849 97.7594 387.279 97.3912 386.614C97.0229 385.949 96.8162 385.206 96.7878 384.446V176.056C96.8314 175.273 97.0586 174.511 97.4512 173.832C97.8438 173.152 98.3908 172.575 99.0478 172.146L344.208 30.5962C344.859 30.1862 345.61 29.9618 346.38 29.9471C347.15 29.9323 347.909 30.1279 348.575 30.5127C349.242 30.8975 349.791 31.4569 350.163 32.1307C350.536 32.8044 350.717 33.567 350.688 34.3362V242.736C350.644 243.52 350.417 244.282 350.024 244.961C349.632 245.64 349.085 246.218 348.428 246.646L103.268 388.196C102.598 388.549 101.854 388.74 101.097 388.754C100.34 388.768 99.5904 388.604 98.9078 388.276Z" fill="#455A64"/>
<path d="M102.838 388.386H102.748C102.679 388.427 102.605 388.457 102.528 388.476H102.358C102.257 388.511 102.153 388.535 102.048 388.546C101.981 388.573 101.91 388.59 101.838 388.596L101.498 388.646C100.606 388.767 99.6976 388.61 98.8978 388.196C98.2699 387.771 97.7514 387.203 97.3847 386.539C97.018 385.875 96.8135 385.134 96.7878 384.376V202.766L101.028 205.216V386.886C101.028 387.886 101.538 388.506 102.278 388.506C102.377 388.521 102.478 388.521 102.578 388.506C102.67 388.48 102.758 388.439 102.838 388.386Z" fill="#4988FF"/>
<path opacity="0.81" d="M102.838 388.386H102.748C102.679 388.427 102.605 388.457 102.528 388.476H102.358C102.257 388.511 102.153 388.535 102.048 388.546C101.981 388.573 101.91 388.59 101.838 388.596L101.498 388.646C100.606 388.767 99.6976 388.61 98.8978 388.196C98.2699 387.771 97.7514 387.203 97.3847 386.539C97.018 385.875 96.8135 385.134 96.7878 384.376V202.766L101.028 205.216V386.886C101.028 387.886 101.538 388.506 102.278 388.506C102.377 388.521 102.478 388.521 102.578 388.506C102.67 388.48 102.758 388.439 102.838 388.386Z" fill="#E0E0E0"/>
<path d="M101.018 205.216L96.7778 202.766V243.116L101.018 245.586V205.216Z" fill="#4988FF"/>
<path opacity="0.15" d="M101.018 205.216L96.7778 202.766V243.116L101.018 245.586V205.216Z" fill="black"/>
<path d="M101.668 176.276C101.268 176.95 101.044 177.713 101.018 178.496V205.216L96.7779 202.766V176.056C96.7729 175.966 96.7729 175.876 96.7779 175.786C96.7973 175.598 96.8273 175.411 96.8679 175.226C96.9925 174.737 97.1808 174.266 97.4279 173.826L101.668 176.276Z" fill="#263238"/>
<path d="M350.688 34.3462V46.4062L170.978 150.156C169.738 150.876 168.728 150.286 168.728 148.856V144.286C168.728 142.856 167.728 142.286 166.468 142.986L111.738 174.596C111.081 175.025 110.534 175.602 110.141 176.282C109.749 176.961 109.521 177.723 109.478 178.506V183.066C109.435 183.849 109.21 184.61 108.819 185.289C108.428 185.969 107.883 186.546 107.228 186.976L101.018 190.596V178.596C101.06 177.814 101.286 177.052 101.677 176.373C102.068 175.694 102.613 175.116 103.268 174.686L348.438 33.0462C349.678 32.3262 350.688 32.9062 350.688 34.3462Z" fill="#37474F"/>
<path d="M350.698 242.746C350.653 243.528 350.425 244.288 350.032 244.965C349.64 245.643 349.094 246.219 348.438 246.646L103.268 388.196C102.028 388.906 101.018 388.326 101.018 386.886V190.596L107.228 187.016C108.468 186.296 110.488 175.356 111.738 174.636L165.548 143.566C166.798 142.846 169.738 150.926 170.978 150.206L350.688 46.4062V242.746H350.698Z" fill="#4988FF"/>
<path opacity="0.9" d="M350.698 242.746C350.653 243.528 350.425 244.288 350.032 244.965C349.64 245.643 349.094 246.219 348.438 246.646L103.268 388.196C102.028 388.906 101.018 388.326 101.018 386.886V190.596L107.228 187.016C108.468 186.296 110.488 175.356 111.738 174.636L165.548 143.566C166.798 142.846 169.738 150.926 170.978 150.206L350.688 46.4062V242.746H350.698Z" fill="white"/>
<g opacity="0.4">
<path d="M349.688 48.1362V242.746C349.639 243.347 349.456 243.928 349.151 244.448C348.846 244.967 348.428 245.411 347.928 245.746L102.768 387.326C102.617 387.428 102.44 387.487 102.258 387.496C102.028 387.496 102.018 386.996 102.018 386.886V191.126L107.728 187.826C108.608 187.316 109.168 185.566 110.428 181.066C110.885 179.128 111.514 177.233 112.308 175.406L165.678 144.596C166.317 145.467 166.891 146.383 167.398 147.336C168.848 149.876 169.648 151.196 170.808 151.196C171.042 151.196 171.272 151.137 171.478 151.026L349.688 48.1362ZM350.688 46.4062L170.978 150.156C170.922 150.17 170.864 150.17 170.808 150.156C169.548 150.156 166.988 143.426 165.718 143.426C165.662 143.412 165.604 143.412 165.548 143.426L111.738 174.596C110.488 175.316 108.468 186.256 107.228 186.976L101.018 190.596V386.886C101.018 387.886 101.528 388.496 102.258 388.496C102.611 388.482 102.955 388.378 103.258 388.196L348.438 246.646C349.094 246.219 349.64 245.643 350.032 244.965C350.425 244.288 350.653 243.528 350.698 242.746V46.4062H350.688Z" fill="#4988FF"/>
</g>
<path d="M101.018 205.216V245.586L350.688 101.456V61.0762L101.018 205.216Z" fill="#4988FF"/>
<path d="M350.688 46.4062V61.0762L101.018 205.216V190.596L105.648 187.916C106.888 187.196 107.308 186.096 107.898 184.006L109.478 178.546C109.968 176.646 110.478 175.356 111.738 174.636L165.548 143.566C166.798 142.846 167.778 142.766 168.728 144.336L170.658 147.836C171.358 149.066 171.718 149.786 172.958 149.066L350.688 46.4062Z" fill="#F0F0F0"/>
<path d="M340.108 41.9062C341.678 41.0062 342.948 41.7362 342.948 43.5462C342.894 44.5317 342.609 45.4908 342.116 46.3456C341.623 47.2005 340.935 47.9269 340.108 48.4662C338.548 49.3662 337.278 48.6362 337.278 46.8262C337.332 45.8418 337.616 44.8839 338.107 44.0294C338.599 43.1749 339.284 42.4477 340.108 41.9062Z" fill="#4988FF"/>
<path d="M329.908 47.7963C331.468 46.8963 332.738 47.6263 332.738 49.4363C332.684 50.4206 332.4 51.3785 331.908 52.2331C331.417 53.0876 330.732 53.8148 329.908 54.3563C328.338 55.2563 327.068 54.5263 327.068 52.7163C327.121 51.7307 327.406 50.7716 327.9 49.9168C328.393 49.062 329.081 48.3355 329.908 47.7963Z" fill="#4988FF"/>
<path d="M319.678 53.6862C321.238 52.7862 322.518 53.5162 322.518 55.3262C322.462 56.3112 322.176 57.2694 321.683 58.1239C321.19 58.9783 320.503 59.7052 319.678 60.2462C318.108 61.1562 316.838 60.4162 316.838 58.6062C316.891 57.6206 317.176 56.6615 317.67 55.8067C318.163 54.9519 318.851 54.2254 319.678 53.6862Z" fill="#4988FF"/>
<path opacity="0.5" d="M111.358 191.596L107.818 193.596L109.168 191.006C109.221 190.908 109.249 190.798 109.249 190.686C109.249 190.574 109.221 190.464 109.168 190.366C109.068 190.246 108.888 190.366 108.768 190.556L106.848 194.256C106.844 194.303 106.844 194.35 106.848 194.396C106.843 194.459 106.843 194.523 106.848 194.586C106.842 194.643 106.842 194.7 106.848 194.756C106.843 194.783 106.843 194.81 106.848 194.836L108.768 196.316C108.796 196.334 108.829 196.343 108.863 196.343C108.896 196.343 108.929 196.334 108.958 196.316C109.05 196.241 109.122 196.145 109.168 196.036C109.268 195.796 109.258 195.526 109.168 195.436L107.818 194.436L111.358 192.436C111.451 192.364 111.525 192.272 111.575 192.166C111.626 192.06 111.651 191.943 111.648 191.826C111.648 191.596 111.518 191.516 111.358 191.596Z" fill="#455A64"/>
<path opacity="0.5" d="M114.318 189.896L117.858 187.896L116.508 186.896C116.388 186.806 116.378 186.536 116.508 186.296C116.638 186.056 116.788 185.926 116.908 186.016L118.828 187.496C118.853 187.515 118.874 187.539 118.888 187.566C118.898 187.619 118.898 187.673 118.888 187.726C118.898 187.789 118.898 187.853 118.888 187.916C118.888 187.916 118.888 187.916 118.888 187.966C118.872 188.015 118.852 188.061 118.828 188.106L116.908 191.766C116.866 191.856 116.801 191.932 116.718 191.986C116.69 192.014 116.652 192.029 116.613 192.029C116.574 192.029 116.536 192.014 116.508 191.986C116.452 191.889 116.422 191.779 116.422 191.666C116.422 191.554 116.452 191.443 116.508 191.346L117.858 188.746L114.318 190.796C114.158 190.886 114.038 190.796 114.038 190.516C114.032 190.398 114.054 190.28 114.102 190.172C114.151 190.064 114.225 189.97 114.318 189.896Z" fill="#455A64"/>
<path opacity="0.5" d="M125.908 179.696C125.908 179.486 125.698 179.516 125.608 179.746L125.118 180.936C124.288 180.846 123.288 181.646 122.608 183.086C121.738 184.936 121.738 187.086 122.608 187.976C122.821 188.176 123.098 188.295 123.39 188.314C123.682 188.332 123.971 188.248 124.208 188.076C124.915 187.602 125.468 186.931 125.798 186.146C125.853 186.052 125.882 185.945 125.882 185.836C125.882 185.727 125.853 185.62 125.798 185.526C125.678 185.416 125.498 185.526 125.388 185.756C124.738 187.136 123.668 187.756 123.018 187.126C122.368 186.496 122.358 184.856 123.018 183.466C123.478 182.466 124.148 181.896 124.738 181.866L124.368 182.756C124.278 182.986 124.368 183.206 124.508 183.106L125.958 182.166C126.013 182.116 126.056 182.054 126.084 181.985C126.112 181.916 126.123 181.841 126.118 181.766L125.908 179.696Z" fill="#455A64"/>
<path opacity="0.5" d="M163.998 150.216L165.288 147.476C165.363 147.347 165.403 147.201 165.403 147.051C165.403 146.902 165.363 146.755 165.288 146.626C165.138 146.486 164.888 146.626 164.738 146.946L163.448 149.676L162.148 148.436C161.998 148.286 161.748 148.436 161.598 148.756C161.522 148.885 161.482 149.032 161.482 149.181C161.482 149.331 161.522 149.477 161.598 149.606L162.888 150.846L161.598 153.596C161.522 153.725 161.482 153.872 161.482 154.021C161.482 154.171 161.522 154.317 161.598 154.446C161.637 154.479 161.687 154.496 161.738 154.496C161.789 154.496 161.838 154.479 161.878 154.446C162.002 154.369 162.097 154.253 162.148 154.116L163.448 151.376L164.738 152.626C164.776 152.658 164.823 152.675 164.873 152.675C164.922 152.675 164.97 152.658 165.008 152.626C165.132 152.547 165.23 152.432 165.288 152.296C165.363 152.167 165.403 152.021 165.403 151.871C165.403 151.722 165.363 151.575 165.288 151.446L163.998 150.216Z" fill="#455A64"/>
<path d="M130.638 183.056V178.496C130.684 177.714 130.914 176.953 131.308 176.276C131.702 175.598 132.25 175.023 132.908 174.596L335.758 57.5963C337.008 56.8763 338.018 57.4563 338.018 58.8963V63.3963C337.974 64.1796 337.747 64.9417 337.355 65.621C336.962 66.3002 336.415 66.8775 335.758 67.3063L132.908 184.366C131.648 185.086 130.638 184.496 130.638 183.056Z" fill="white"/>
<path d="M332.668 67.5963C332.615 67.6068 332.561 67.6068 332.508 67.5963C332.402 67.5433 332.317 67.4564 332.266 67.3495C332.216 67.2426 332.202 67.1218 332.228 67.0063L332.448 65.1163L331.528 64.4563C331.462 64.4083 331.41 64.3448 331.375 64.2715C331.34 64.1982 331.324 64.1174 331.328 64.0363C331.329 63.8987 331.359 63.7629 331.418 63.6385C331.477 63.5141 331.562 63.4041 331.668 63.3163L332.988 62.3163C333.032 62.2763 333.064 62.2241 333.078 62.1663L333.668 60.2263C333.702 60.0848 333.775 59.9559 333.879 59.8548C333.984 59.7538 334.115 59.6849 334.258 59.6563C334.347 59.6532 334.435 59.6762 334.512 59.7224C334.588 59.7685 334.649 59.8359 334.688 59.9163L335.218 61.0563L336.418 60.5963C336.502 60.5602 336.596 60.5513 336.686 60.5711C336.775 60.5908 336.857 60.6381 336.918 60.7063C336.997 60.8267 337.039 60.9674 337.039 61.1113C337.039 61.2551 336.997 61.3959 336.918 61.5163L335.918 63.3163C335.907 63.3691 335.907 63.4235 335.918 63.4763L336.148 65.1063C336.162 65.2396 336.146 65.3744 336.101 65.5007C336.056 65.627 335.983 65.7416 335.888 65.8363C335.835 65.8997 335.767 65.9493 335.69 65.9807C335.614 66.012 335.53 66.0243 335.448 66.0163L334.258 65.8663L333.108 67.4063C333.052 67.4675 332.984 67.5161 332.909 67.5488C332.833 67.5816 332.751 67.5978 332.668 67.5963ZM331.908 63.9263L332.828 64.5863C332.905 64.6509 332.964 64.7351 332.997 64.8302C333.031 64.9252 333.038 65.0275 333.018 65.1263L332.908 66.6863L333.908 65.4263C333.965 65.3451 334.042 65.2796 334.131 65.2359C334.22 65.1922 334.319 65.1717 334.418 65.1763L335.608 65.3263C335.608 65.3263 335.658 65.1663 335.608 65.0863L335.378 63.4563C335.362 63.2759 335.4 63.0948 335.488 62.9363L336.488 61.1363L335.388 61.5563C335.336 61.5792 335.279 61.5915 335.222 61.5923C335.165 61.5932 335.108 61.5826 335.055 61.5611C335.002 61.5397 334.953 61.5079 334.913 61.4676C334.872 61.4272 334.84 61.3792 334.818 61.3263L334.328 60.3263L333.738 62.2663C333.689 62.4446 333.584 62.6024 333.438 62.7163L332.118 63.7163C332.025 63.7584 331.95 63.833 331.908 63.9263Z" fill="#E0E0E0"/>
<g opacity="0.5">
<path d="M340.658 56.9763C340.485 56.9781 340.316 56.9222 340.178 56.8174C340.04 56.7127 339.941 56.565 339.896 56.3977C339.852 56.2304 339.864 56.053 339.931 55.8934C339.998 55.7338 340.117 55.6012 340.268 55.5163L346.608 51.8563C346.696 51.8045 346.794 51.7706 346.896 51.7566C346.998 51.7426 347.101 51.7487 347.201 51.7747C347.3 51.8007 347.393 51.8461 347.475 51.9081C347.557 51.9701 347.626 52.0477 347.678 52.1363C347.73 52.225 347.764 52.323 347.778 52.4247C347.792 52.5265 347.785 52.63 347.759 52.7293C347.733 52.8287 347.688 52.922 347.626 53.0038C347.564 53.0857 347.486 53.1545 347.398 53.2063L341.048 56.8763C340.929 56.9432 340.794 56.9777 340.658 56.9763Z" fill="#455A64"/>
<path d="M340.658 60.6463C340.52 60.646 340.385 60.6099 340.266 60.5415C340.147 60.4731 340.048 60.3748 339.978 60.2563C339.926 60.1671 339.893 60.0685 339.879 59.9663C339.866 59.8641 339.873 59.7603 339.9 59.6608C339.927 59.5613 339.973 59.4681 340.036 59.3867C340.099 59.3052 340.178 59.2371 340.268 59.1863L346.608 55.5163C346.786 55.4342 346.989 55.4216 347.176 55.481C347.364 55.5404 347.522 55.6674 347.621 55.8373C347.72 56.0072 347.751 56.2078 347.71 56.3999C347.669 56.592 347.558 56.7618 347.398 56.8763L341.048 60.5363C340.93 60.6062 340.795 60.6441 340.658 60.6463Z" fill="#455A64"/>
<path d="M340.658 64.3064C340.52 64.3062 340.385 64.2701 340.266 64.2017C340.147 64.1333 340.047 64.035 339.978 63.9164C339.926 63.828 339.893 63.7302 339.88 63.6288C339.866 63.5273 339.873 63.4243 339.9 63.3256C339.927 63.2269 339.974 63.1346 340.037 63.054C340.1 62.9735 340.178 62.9063 340.268 62.8564L346.608 59.1864C346.696 59.1346 346.794 59.1006 346.896 59.0866C346.998 59.0726 347.101 59.0788 347.201 59.1048C347.3 59.1308 347.393 59.1761 347.475 59.2382C347.557 59.3002 347.626 59.3778 347.678 59.4664C347.73 59.5551 347.764 59.6531 347.778 59.7548C347.792 59.8565 347.785 59.9601 347.759 60.0594C347.733 60.1588 347.688 60.252 347.626 60.3339C347.564 60.4157 347.486 60.4846 347.398 60.5364L341.048 64.2064C340.929 64.2733 340.794 64.3078 340.658 64.3064Z" fill="#455A64"/>
</g>
<path d="M101.018 190.546V205.216L96.7778 202.766V188.106L101.018 190.546Z" fill="#E0E0E0"/>
<path d="M273.894 131.715L272.213 132.697L277.074 114.523L278.728 113.556L283.588 126.047L281.908 127.03L277.953 116.435L277.849 116.495L273.894 131.715ZM274.514 125.363L281.288 121.403V123.05L274.514 127.01V125.363ZM285.65 124.842V109.509L287.176 108.617V114.277L287.305 114.202C287.417 113.937 287.572 113.591 287.77 113.166C287.973 112.733 288.261 112.285 288.636 111.821C289.015 111.35 289.528 110.925 290.175 110.548C291.01 110.059 291.747 109.87 292.385 109.982C293.023 110.093 293.52 110.488 293.878 111.168C294.236 111.847 294.414 112.791 294.414 113.998C294.414 115.216 294.236 116.376 293.878 117.479C293.52 118.576 293.025 119.555 292.391 120.414C291.758 121.269 291.028 121.938 290.2 122.421C289.563 122.794 289.052 122.97 288.669 122.95C288.285 122.925 287.99 122.815 287.783 122.622C287.576 122.423 287.417 122.252 287.305 122.108L287.124 122.214V123.98L285.65 124.842ZM287.15 118.215C287.15 119.084 287.26 119.786 287.479 120.321C287.699 120.852 288.02 121.18 288.442 121.308C288.865 121.43 289.382 121.313 289.994 120.955C290.631 120.582 291.163 120.077 291.59 119.438C292.021 118.792 292.344 118.074 292.559 117.284C292.779 116.487 292.889 115.679 292.889 114.86C292.889 114.052 292.781 113.386 292.566 112.863C292.355 112.333 292.034 112.004 291.603 111.876C291.176 111.741 290.64 111.863 289.994 112.241C289.373 112.603 288.852 113.09 288.429 113.702C288.007 114.308 287.688 114.998 287.473 115.773C287.257 116.543 287.15 117.357 287.15 118.215ZM300.781 116.236C299.884 116.76 299.098 116.973 298.422 116.874C297.749 116.773 297.224 116.389 296.845 115.722C296.47 115.053 296.282 114.124 296.282 112.936C296.282 111.738 296.47 110.583 296.845 109.471C297.224 108.356 297.749 107.355 298.422 106.467C299.098 105.578 299.884 104.871 300.781 104.347C301.677 103.823 302.461 103.612 303.133 103.713C303.81 103.812 304.336 104.198 304.71 104.872C305.09 105.544 305.279 106.479 305.279 107.677C305.279 108.865 305.09 110.014 304.71 111.124C304.336 112.231 303.81 113.23 303.133 114.119C302.461 115.006 301.677 115.712 300.781 116.236ZM300.781 114.649C301.462 114.251 302.022 113.721 302.461 113.06C302.901 112.399 303.226 111.677 303.437 110.895C303.648 110.112 303.754 109.337 303.754 108.568C303.754 107.8 303.648 107.145 303.437 106.605C303.226 106.064 302.901 105.718 302.461 105.566C302.022 105.413 301.462 105.536 300.781 105.934C300.1 106.332 299.54 106.864 299.1 107.531C298.661 108.197 298.335 108.924 298.124 109.711C297.913 110.498 297.808 111.276 297.808 112.045C297.808 112.813 297.913 113.465 298.124 114.001C298.335 114.536 298.661 114.877 299.1 115.025C299.54 115.172 300.1 115.047 300.781 114.649ZM313.864 103.646V96.8481L315.389 95.9564V107.456L313.864 108.348V106.401L313.761 106.462C313.528 107.182 313.166 107.89 312.675 108.586C312.184 109.278 311.563 109.843 310.813 110.281C310.193 110.644 309.641 110.809 309.159 110.777C308.676 110.739 308.297 110.482 308.021 110.004C307.745 109.521 307.608 108.791 307.608 107.813V100.506L309.133 99.614V106.801C309.133 107.64 309.335 108.19 309.74 108.453C310.15 108.712 310.671 108.657 311.305 108.287C311.684 108.065 312.069 107.727 312.461 107.274C312.858 106.817 313.19 106.279 313.457 105.658C313.728 105.036 313.864 104.365 313.864 103.646ZM322.5 91.7991V93.2964L317.356 96.3041V94.8068L322.5 91.7991ZM318.855 91.1751L320.381 90.2833V101.244C320.381 101.743 320.443 102.081 320.568 102.257C320.697 102.426 320.861 102.495 321.059 102.464C321.262 102.426 321.475 102.341 321.699 102.21C321.867 102.112 322.005 102.021 322.113 101.938C322.22 101.85 322.307 101.78 322.371 101.727L322.681 103.133C322.578 103.238 322.434 103.368 322.248 103.521C322.063 103.679 321.828 103.841 321.544 104.008C321.113 104.26 320.691 104.399 320.277 104.426C319.868 104.451 319.527 104.323 319.256 104.043C318.989 103.76 318.855 103.284 318.855 102.615V91.1751ZM336.17 90.6055V83.8075L337.696 82.9158V94.4154L336.17 95.3071V93.3606L336.067 93.421C335.834 94.141 335.472 94.8492 334.981 95.5457C334.49 96.2371 333.869 96.802 333.12 97.2403C332.499 97.6031 331.948 97.7683 331.465 97.736C330.982 97.6987 330.603 97.4412 330.327 96.9635C330.052 96.4809 329.914 95.7504 329.914 94.7722V87.4651L331.439 86.5734V93.7607C331.439 94.5992 331.642 95.1496 332.047 95.4119C332.456 95.6717 332.977 95.6165 333.611 95.2462C333.99 95.0245 334.376 94.6868 334.768 94.2329C335.164 93.7766 335.496 93.2382 335.763 92.6179C336.035 91.995 336.17 91.3242 336.17 90.6055ZM347.521 79.747L346.151 80.9972C346.065 80.783 345.938 80.6003 345.77 80.449C345.606 80.2902 345.382 80.2115 345.098 80.2131C344.813 80.2146 344.449 80.3451 344.005 80.6046C343.398 80.9598 342.891 81.418 342.486 81.9792C342.086 82.5329 341.885 83.0568 341.885 83.5509C341.885 83.9901 342.023 84.2564 342.299 84.3497C342.575 84.4431 343.006 84.4033 343.592 84.2304L345.065 83.7882C345.953 83.5188 346.614 83.514 347.05 83.7736C347.485 84.0283 347.702 84.5574 347.702 85.361C347.702 86.0198 347.539 86.7045 347.211 87.415C346.888 88.123 346.436 88.7968 345.854 89.4363C345.272 90.0759 344.596 90.6211 343.824 91.072C342.812 91.664 341.974 91.8994 341.31 91.7782C340.647 91.657 340.226 91.1589 340.05 90.284L341.498 89.0183C341.635 89.5566 341.896 89.8684 342.28 89.9536C342.667 90.0364 343.174 89.8951 343.799 89.5299C344.509 89.1142 345.074 88.6096 345.492 88.0158C345.914 87.4146 346.125 86.8669 346.125 86.3728C346.125 85.9735 346.005 85.7096 345.763 85.5812C345.522 85.4477 345.151 85.4597 344.652 85.6172L342.997 86.1353C342.088 86.4172 341.42 86.4209 340.993 86.1462C340.571 85.864 340.36 85.3261 340.36 84.5325C340.36 83.8836 340.517 83.2177 340.832 82.5347C341.151 81.8492 341.584 81.2042 342.131 80.5998C342.683 79.9929 343.307 79.4854 344.005 79.0773C344.988 78.503 345.759 78.3016 346.319 78.4733C346.884 78.6424 347.284 79.0669 347.521 79.747Z" fill="white"/>
<path opacity="0.1" d="M111.848 255.106L180.898 215.236V327.806L111.648 367.566L111.848 255.106Z" fill="#4988FF"/>
<path opacity="0.15" d="M196.118 208.526L279.418 160.436C281.098 159.436 282.418 160.196 282.418 162.066C282.355 163.101 282.051 164.106 281.53 165.002C281.009 165.898 280.286 166.66 279.418 167.226L196.108 215.856C194.438 216.856 193.108 216.056 193.108 214.126V213.776C193.164 212.727 193.466 211.705 193.988 210.793C194.511 209.881 195.241 209.105 196.118 208.526Z" fill="#4988FF"/>
<path opacity="0.1" d="M195.248 223.096L333.088 143.516C334.288 142.826 335.258 143.316 335.258 144.606C335.205 145.335 334.981 146.04 334.604 146.666C334.227 147.292 333.707 147.819 333.088 148.206L195.248 227.786C194.058 228.476 193.088 227.986 193.088 226.696C193.14 225.969 193.363 225.264 193.738 224.639C194.114 224.013 194.631 223.485 195.248 223.096Z" fill="#4988FF"/>
<path opacity="0.1" d="M195.248 232.516L333.088 152.936C334.288 152.246 335.258 152.736 335.258 154.026C335.205 154.755 334.981 155.46 334.604 156.086C334.227 156.712 333.707 157.239 333.088 157.626L195.248 237.206C194.058 237.896 193.088 237.406 193.088 236.106C193.142 235.38 193.366 234.678 193.741 234.054C194.116 233.431 194.632 232.904 195.248 232.516Z" fill="#4988FF"/>
<path opacity="0.1" d="M195.248 241.926L333.088 162.346C334.288 161.656 335.258 162.146 335.258 163.446C335.204 164.173 334.979 164.877 334.602 165.5C334.225 166.124 333.706 166.65 333.088 167.036L195.248 246.596C194.058 247.286 193.088 246.796 193.088 245.496C193.146 244.774 193.372 244.076 193.747 243.457C194.122 242.837 194.636 242.313 195.248 241.926Z" fill="#4988FF"/>
<path opacity="0.1" d="M195.248 251.346L333.088 171.766C334.288 171.076 335.258 171.566 335.258 172.856C335.205 173.585 334.981 174.29 334.604 174.916C334.227 175.542 333.707 176.069 333.088 176.456L195.248 256.036C194.058 256.726 193.088 256.236 193.088 254.946C193.14 254.219 193.363 253.514 193.738 252.889C194.114 252.263 194.631 251.735 195.248 251.346Z" fill="#4988FF"/>
<path opacity="0.1" d="M195.248 260.766L291.428 204.766C292.618 204.076 293.588 204.566 293.588 205.866C293.534 206.592 293.31 207.295 292.935 207.918C292.56 208.542 292.044 209.069 291.428 209.456L195.248 265.456C194.058 266.146 193.088 265.656 193.088 264.356C193.142 263.631 193.366 262.928 193.741 262.304C194.116 261.681 194.632 261.154 195.248 260.766Z" fill="#4988FF"/>
<path opacity="0.1" d="M195.248 279.596L333.088 200.016C334.288 199.326 335.258 199.816 335.258 201.106C335.205 201.835 334.981 202.54 334.604 203.166C334.227 203.792 333.707 204.319 333.088 204.706L195.248 284.286C194.058 284.976 193.088 284.486 193.088 283.196C193.14 282.469 193.363 281.764 193.738 281.139C194.114 280.513 194.631 279.985 195.248 279.596Z" fill="#4988FF"/>
<path opacity="0.1" d="M195.248 289.016L333.088 209.436C334.288 208.746 335.258 209.236 335.258 210.526C335.205 211.255 334.981 211.96 334.604 212.586C334.227 213.212 333.707 213.739 333.088 214.126L195.248 293.706C194.058 294.396 193.088 293.906 193.088 292.606C193.142 291.88 193.366 291.178 193.741 290.554C194.116 289.931 194.632 289.404 195.248 289.016Z" fill="#4988FF"/>
<path opacity="0.1" d="M195.248 298.426L333.088 218.846C334.288 218.156 335.258 218.646 335.258 219.946C335.204 220.673 334.979 221.377 334.602 222C334.225 222.624 333.706 223.15 333.088 223.536L195.248 303.126C194.058 303.816 193.088 303.326 193.088 302.026C193.142 301.299 193.365 300.595 193.741 299.97C194.116 299.345 194.632 298.816 195.248 298.426Z" fill="#4988FF"/>
<path opacity="0.1" d="M195.248 307.846L245.908 278.286C247.098 277.596 248.068 278.086 248.068 279.386C248.014 280.112 247.79 280.815 247.415 281.438C247.04 282.062 246.524 282.589 245.908 282.976L195.258 312.536C194.068 313.226 193.098 312.736 193.098 311.446C193.149 310.72 193.371 310.015 193.744 309.39C194.118 308.765 194.633 308.236 195.248 307.846Z" fill="#4988FF"/>
<path d="M379.448 253.796C386.778 230.016 393.908 214.346 386.638 209.496C379.878 210.756 376.848 214.106 375.408 223.026C373.898 232.376 370.758 245.416 368.928 252.936C367.346 259.22 365.083 265.313 362.178 271.106C361.74 271.908 361.031 272.529 360.178 272.856C357.918 273.746 356.838 274.856 354.998 276.216C353.548 277.216 352.488 277.356 352.558 277.786C352.677 278.269 352.98 278.685 353.402 278.947C353.825 279.209 354.333 279.295 354.818 279.186C355.904 278.981 356.962 278.645 357.968 278.186C357.103 280.377 355.757 282.346 354.028 283.946C350.478 286.946 351.028 289.876 356.718 290.216C358.718 290.336 363.488 288.476 367.878 281.006C369.362 278.222 370.668 275.346 371.788 272.396C374.848 264.736 377.978 258.596 379.448 253.796Z" fill="#FFA8A7"/>
<path d="M387.908 209.216C387.908 209.216 382.268 208.926 378.848 212.696C375.428 216.466 371.448 238.986 371.448 238.986C371.448 238.986 375.188 244.126 385.048 241.986L387.908 209.216Z" fill="#4988FF"/>
<path opacity="0.3" d="M387.908 209.216C387.908 209.216 382.268 208.926 378.848 212.696C375.428 216.466 371.448 238.986 371.448 238.986C371.448 238.986 375.188 244.126 385.048 241.986L387.908 209.216Z" fill="black"/>
<path d="M414.318 368.976H406.748V382.476H414.318V368.976Z" fill="#FFA8A7"/>
<path d="M388.068 368.256L380.498 368.536L380.118 354.246L388.068 353.976V368.256Z" fill="#FFA8A7"/>
<path d="M415.388 252.096C415.388 259.626 414.278 320.226 414.278 320.226C414.448 322.396 416.398 326.396 415.978 334.716C415.408 346.016 414.638 375.716 414.638 375.716C413.339 376.385 411.905 376.749 410.444 376.78C408.983 376.811 407.534 376.509 406.208 375.896C406.208 375.896 399.048 334.746 397.698 323.536C396.508 313.766 394.498 280.846 394.498 280.846L390.398 319.116C391.272 323.235 391.588 327.453 391.338 331.656C390.978 336.836 388.548 363.826 388.548 363.826C387.239 364.598 385.772 365.061 384.258 365.18C382.743 365.3 381.222 365.073 379.808 364.516C379.808 364.516 375.498 323.876 375.408 319.116C375.308 313.696 377.928 252.006 377.928 252.006L415.388 252.096Z" fill="#37474F"/>
<path d="M406.748 378.596V377.466C406.018 377.796 404.338 384.466 401.338 387.346C398.948 389.606 395.688 392.226 394.858 394.756C394.028 397.286 399.398 398.846 401.628 398.436C404.218 397.956 408.718 396.056 409.838 394.286C410.958 392.516 411.498 389.926 412.418 388.636C413.338 387.346 415.418 385.906 415.938 384.406C416.218 383.586 415.938 381.786 415.508 380.266C415.078 378.746 414.778 377.336 414.318 377.466V378.326C413.257 379.207 411.917 379.682 410.538 379.666C409.428 379.696 406.738 379.466 406.748 378.596Z" fill="#263238"/>
<path d="M380.418 366.096C380.028 366.096 379.708 366.686 378.838 367.666C377.553 369.022 376.048 370.151 374.388 371.006C371.548 372.486 366.038 374.756 363.538 375.926C361.988 376.656 362.058 378.616 363.668 379.736C365.278 380.856 369.168 381.656 373.838 380.566C376.378 379.976 379.698 377.566 381.788 377.656C383.878 377.746 387.788 377.766 389.358 376.656C390.928 375.546 390.288 373.176 389.848 371.136C389.368 368.916 388.778 365.446 388.068 365.596V366.366C387.158 367.796 382.458 368.366 380.458 367.366L380.418 366.096Z" fill="#263238"/>
<path d="M394.498 280.856C390.558 279.57 386.957 277.417 383.958 274.556C383.958 274.556 385.958 278.556 392.038 282.216L390.748 316.396L394.498 280.856Z" fill="#263238"/>
<path d="M411.448 211.016C411.448 211.016 417.368 211.566 416.948 222.846L415.638 240.846V267.846C410.068 274.156 385.388 273.686 376.938 267.336C376.938 267.336 377.888 235.406 378.458 223.116C378.868 214.386 380.878 209.986 389.458 209.026L400.008 209.486L411.448 211.016Z" fill="#4988FF"/>
<path opacity="0.3" d="M394.618 216.936L393.258 226.416L390.098 226.356L393.668 226.926L394.618 216.936Z" fill="black"/>
<path d="M402.518 185.596C402.58 188.648 401.427 191.6 399.314 193.803C397.201 196.006 394.3 197.281 391.248 197.346C385.018 197.346 380.248 192.076 379.968 185.606C379.478 174.136 385.018 173.856 391.248 173.856C394.298 173.922 397.198 175.195 399.311 177.396C401.423 179.597 402.577 182.546 402.518 185.596Z" fill="#263238"/>
<path d="M408.908 191.406C408.908 191.406 407.178 199.866 406.488 201.256C406.042 202.104 405.28 202.743 404.368 203.036L404.488 197.086L408.908 191.406Z" fill="#263238"/>
<path d="M406.768 179.286C406.768 179.286 408.008 178.976 409.328 181.036C410.458 182.796 410.718 186.756 408.938 191.406L405.688 191.796L406.768 179.286Z" fill="#263238"/>
<path d="M404.708 191.796C405.358 192.206 406.288 190.896 407.098 190.016C407.908 189.136 410.528 187.946 411.848 190.816C413.168 193.686 410.688 197.626 408.618 198.306C405.048 199.476 404.518 197.086 404.518 197.086L404.238 210.486C399.508 217.816 388.778 217.546 392.638 210.136V206.056C391.049 206.32 389.436 206.408 387.828 206.316C385.208 205.886 383.558 203.736 382.758 200.776C381.478 196.026 380.998 192.196 382.078 182.846C383.278 172.596 394.718 172.506 400.908 176.596C407.098 180.686 404.708 191.796 404.708 191.796Z" fill="#FFA8A7"/>
<path d="M404.298 207.486C403.198 209.738 401.617 211.721 399.668 213.296C398.012 214.52 396.089 215.336 394.058 215.676C395.734 216.812 397.107 218.339 398.058 220.126C399.248 222.726 407.578 215.556 407.498 210.466C407.498 210.466 406.198 205.356 404.398 205.036L404.298 207.486Z" fill="#263238"/>
<path d="M394.058 215.676C394.058 215.676 391.488 214.406 392.638 210.136V206.056L391.508 206.206C390.191 207.489 389.256 209.113 388.808 210.896C388.548 212.066 387.908 217.986 389.038 219.156C390.168 220.326 391.748 215.996 394.058 215.676Z" fill="#263238"/>
<path d="M400.328 180.596C400.62 180.532 400.925 180.549 401.208 180.646C402.208 181.086 402.388 184.106 402.558 184.976C403.128 187.906 403.608 192.876 404.708 192.896C405.038 192.896 406.288 190.746 407.098 189.976C408.228 188.906 406.768 179.246 406.768 179.246C407.066 178.412 407.123 177.511 406.932 176.646C406.741 175.781 406.31 174.987 405.688 174.356C403.688 172.036 400.468 171.516 397.558 171.356C394.128 171.166 390.648 171.426 387.268 170.676C386.206 170.381 385.128 170.151 384.038 169.986C383.992 169.967 383.943 169.957 383.893 169.957C383.843 169.957 383.794 169.967 383.748 169.986C383.638 170.076 383.658 170.246 383.688 170.386C383.9 171.399 384.257 172.376 384.748 173.286C382.736 173.127 380.749 172.735 378.828 172.116C378.717 172.082 378.599 172.082 378.488 172.116C378.258 172.186 378.218 172.486 378.238 172.726C378.368 175.146 379.518 178.806 381.488 180.226C383.234 181.369 385.262 182.01 387.348 182.076C392.648 182.276 395.908 181.156 400.328 180.596Z" fill="#263238"/>
<path d="M406.768 179.796L410.718 177.586C410.597 177.314 410.421 177.07 410.201 176.87C409.981 176.67 409.721 176.518 409.439 176.424C409.156 176.33 408.858 176.296 408.561 176.324C408.265 176.352 407.978 176.441 407.718 176.586C407.193 176.911 406.805 177.417 406.63 178.01C406.455 178.602 406.504 179.238 406.768 179.796Z" fill="#263238"/>
<path d="M392.648 206.056C392.648 206.056 398.498 204.826 400.548 203.696C401.762 203.028 402.748 202.011 403.378 200.776C403.073 202.018 402.526 203.187 401.768 204.216C400.278 206.216 392.648 207.676 392.648 207.676V206.056Z" fill="#F28F8F"/>
<path d="M394.058 190.276C394.079 190.502 394.166 190.716 394.306 190.893C394.447 191.071 394.636 191.204 394.851 191.276C395.066 191.347 395.297 191.356 395.516 191.299C395.736 191.242 395.934 191.123 396.086 190.955C396.239 190.788 396.34 190.58 396.377 190.357C396.414 190.133 396.385 189.904 396.294 189.697C396.204 189.489 396.054 189.313 395.865 189.188C395.676 189.064 395.454 188.997 395.228 188.996C395.066 189.001 394.907 189.039 394.761 189.106C394.614 189.174 394.482 189.27 394.373 189.389C394.264 189.508 394.18 189.648 394.126 189.801C394.072 189.953 394.049 190.115 394.058 190.276Z" fill="#263238"/>
<path d="M395.908 185.216L398.418 186.656C398.599 186.31 398.648 185.909 398.554 185.529C398.46 185.15 398.23 184.818 397.908 184.596C397.74 184.489 397.551 184.419 397.353 184.392C397.155 184.366 396.954 184.383 396.764 184.442C396.573 184.501 396.398 184.6 396.25 184.734C396.103 184.868 395.986 185.032 395.908 185.216Z" fill="#263238"/>
<path d="M393.178 198.716L390.498 199.716C390.551 199.9 390.641 200.072 390.763 200.22C390.885 200.367 391.036 200.489 391.206 200.576C391.377 200.663 391.564 200.714 391.755 200.726C391.946 200.739 392.138 200.711 392.318 200.646C392.674 200.488 392.959 200.203 393.118 199.846C393.277 199.49 393.298 199.087 393.178 198.716Z" fill="#F28F8F"/>
<path d="M383.288 186.286L385.578 184.446C385.475 184.285 385.338 184.148 385.178 184.043C385.018 183.939 384.837 183.869 384.648 183.84C384.459 183.811 384.266 183.822 384.081 183.873C383.897 183.924 383.725 184.014 383.578 184.136C383.272 184.395 383.073 184.758 383.02 185.155C382.966 185.553 383.062 185.955 383.288 186.286Z" fill="#263238"/>
<path d="M384.298 189.926C384.291 190.086 384.316 190.245 384.372 190.395C384.427 190.545 384.511 190.683 384.62 190.8C384.729 190.917 384.86 191.012 385.005 191.078C385.151 191.144 385.308 191.181 385.468 191.186C385.805 191.186 386.128 191.052 386.366 190.814C386.604 190.576 386.738 190.253 386.738 189.916C386.738 189.579 386.604 189.256 386.366 189.018C386.128 188.78 385.805 188.646 385.468 188.646C385.144 188.664 384.841 188.808 384.622 189.048C384.403 189.287 384.287 189.602 384.298 189.926Z" fill="#263238"/>
<path d="M390.578 188.946L390.438 196.356L386.228 195.386L390.578 188.946Z" fill="#F28F8F"/>
<path d="M422.968 196.396C424.658 194.156 428.078 199.126 429.658 202.556C431.238 205.986 431.268 207.926 429.968 209.286C428.668 210.646 426.218 209.826 423.768 206.576C421.318 203.326 421.998 198.046 422.968 196.396Z" fill="#4988FF"/>
<path opacity="0.5" d="M422.968 196.396C424.658 194.156 428.078 199.126 429.658 202.556C431.238 205.986 431.268 207.926 429.968 209.286C428.668 210.646 426.218 209.826 423.768 206.576C421.318 203.326 421.998 198.046 422.968 196.396Z" fill="black"/>
<path d="M434.908 197.056C428.908 211.056 420.558 218.946 416.808 227.956C411.898 227.626 408.068 215.756 411.728 210.686C411.728 210.686 426.108 195.116 427.408 188.996C428.568 183.566 430.118 174.606 429.988 169.996C429.937 169.245 429.621 168.537 429.098 167.996C427.588 166.366 427.588 165.066 426.618 163.276C425.868 161.876 425.038 161.356 425.278 161.036C425.589 160.704 426.014 160.5 426.468 160.467C426.922 160.434 427.372 160.573 427.728 160.856C428.422 161.364 429.044 161.962 429.578 162.636C429.763 160.839 429.47 159.024 428.728 157.376C427.058 153.596 427.468 151.676 432.558 153.016C435.758 153.866 437.758 156.526 438.238 164.196C438.46 167.388 438.48 170.591 438.298 173.786C437.738 179.696 437.388 185.856 436.658 190.786C436.343 192.942 435.755 195.049 434.908 197.056Z" fill="#FFA8A7"/>
<path d="M410.228 210.856L422.908 196.356C422.908 196.356 421.398 199.886 424.698 205.036C427.998 210.186 429.958 209.286 429.958 209.286C429.958 209.286 422.468 220.216 420.468 223.876C418.468 227.536 416.378 230.626 416.378 230.626C416.157 231.053 415.813 231.404 415.391 231.634C414.968 231.864 414.487 231.962 414.008 231.916C412.148 231.916 407.218 223.656 410.228 210.856Z" fill="#4988FF"/>
<path opacity="0.3" d="M410.228 210.856L422.908 196.356C422.908 196.356 421.398 199.886 424.698 205.036C427.998 210.186 429.958 209.286 429.958 209.286C429.958 209.286 422.468 220.216 420.468 223.876C418.468 227.536 416.378 230.626 416.378 230.626C416.157 231.053 415.813 231.404 415.391 231.634C414.968 231.864 414.487 231.962 414.008 231.916C412.148 231.916 407.218 223.656 410.228 210.856Z" fill="black"/>
<path d="M307.328 243.446L313.298 251.396L306.878 258.746L298.608 249.076L307.328 243.446Z" fill="#F28F8F"/>
<path d="M287.778 225.366C292.988 225.606 295.468 226.366 298.198 229.626C300.928 232.886 314.568 252.596 314.568 252.596C314.568 252.596 312.158 259.356 306.878 258.776L297.288 248.886L287.778 225.366Z" fill="#455A64"/>
<path d="M262.218 390.486C261.847 392.56 261.647 394.66 261.618 396.766C261.548 400.566 260.848 401.926 260.758 405.046C260.648 408.616 261.268 409.956 262.758 411.956C264.248 413.956 268.008 415.786 269.618 412.396C271.228 409.006 271.018 406.786 270.498 403.276C269.978 399.766 269.898 397.656 269.598 394.896C269.318 392.456 268.998 390.606 268.998 390.606L262.218 390.486Z" fill="#263238"/>
<path d="M273.028 360.596L260.478 360.366C260.668 368.746 261.998 382.686 262.218 390.536C262.218 392.016 262.218 402.026 262.738 405.076C263.578 409.646 268.998 409.026 269.288 406.296C269.578 403.566 268.938 391.866 268.958 390.656C268.908 385.656 271.268 372.476 272.508 363.426C272.568 362.936 272.968 360.976 273.028 360.596Z" fill="#FFBDA7"/>
<path d="M291.458 383.976C291.458 383.976 290.818 383.976 290.708 384.536C290.598 385.096 290.558 386.156 290.298 387.196C289.871 388.826 289.723 390.517 289.858 392.196C290.068 393.366 292.738 395.106 294.568 395.416C296.398 395.726 298.968 397.526 300.398 398.876C302.694 400.772 305.535 401.885 308.508 402.056C311.508 402.056 313.678 401.056 314.678 399.416C315.678 397.776 313.768 397.586 310.288 395.326L307.578 393.566C302.068 389.966 300.048 388.036 298.488 384.436L291.458 383.976Z" fill="#263238"/>
<path d="M298.528 382.016C298.438 379.416 299.758 360.316 299.758 360.316L288.968 361.536C291.528 376.756 291.728 381.946 291.438 384.166C291.384 384.372 291.36 384.584 291.368 384.796C291.368 387.796 294.718 389.356 297.368 391.326C298.368 392.106 301.038 394.506 304.138 395.556C306.138 396.246 309.848 396.556 310.318 395.286C307.158 392.866 302.838 389.706 300.318 386.936C299.078 385.596 298.618 384.596 298.528 382.016Z" fill="#FFBDA7"/>
<path d="M263.388 273.956C257.508 286.816 263.608 332.096 263.608 332.096C263.428 334.186 261.038 338.286 260.158 347.476C259.108 358.316 262.088 387.366 262.088 387.366C263.139 388.003 264.339 388.353 265.568 388.379C266.797 388.406 268.011 388.108 269.088 387.516C269.088 387.516 276.678 344.836 278.088 334.056C279.278 324.636 281.558 303.936 281.558 303.936L288.038 333.996C287.088 337.032 286.399 340.143 285.978 343.296C285.368 349.636 291.548 381.486 291.548 381.486C292.662 381.946 293.858 382.171 295.063 382.147C296.267 382.123 297.454 381.85 298.548 381.346C298.548 381.346 301.278 340.206 301.858 332.566C302.858 319.726 299.408 279.676 297.058 272.076L263.388 273.956Z" fill="#4988FF"/>
<path opacity="0.5" d="M263.388 273.956C257.508 286.816 263.608 332.096 263.608 332.096C263.428 334.186 261.038 338.286 260.158 347.476C259.108 358.316 262.088 387.366 262.088 387.366C263.139 388.003 264.339 388.353 265.568 388.379C266.797 388.406 268.011 388.108 269.088 387.516C269.088 387.516 276.678 344.836 278.088 334.056C279.278 324.636 281.558 303.936 281.558 303.936L288.038 333.996C287.088 337.032 286.399 340.143 285.978 343.296C285.368 349.636 291.548 381.486 291.548 381.486C292.662 381.946 293.858 382.171 295.063 382.147C296.267 382.123 297.454 381.85 298.548 381.346C298.548 381.346 301.278 340.206 301.858 332.566C302.858 319.726 299.408 279.676 297.058 272.076L263.388 273.956Z" fill="black"/>
<path opacity="0.2" d="M281.538 303.936L283.448 291.996C283.448 291.996 291.528 290.326 295.198 286.876C292.667 289.844 289.355 292.044 285.638 293.226L283.488 302.426L287.248 330.256L281.538 303.936Z" fill="black"/>
<path d="M266.408 234.026L274.408 236.106V219.176C269.988 218.026 266.408 220.576 266.408 224.876V234.026Z" fill="#4988FF"/>
<path opacity="0.6" d="M266.408 234.026L274.408 236.106V219.176C269.988 218.026 266.408 220.576 266.408 224.876V234.026Z" fill="black"/>
<path d="M282.248 221.596L279.378 221.536C270.618 221.326 263.678 213.776 263.868 204.656C263.868 194.716 271.568 186.656 281.108 186.566C290.648 186.516 298.428 194.566 298.478 204.466V205.466C298.238 214.596 290.988 221.786 282.248 221.596Z" fill="#4988FF"/>
<path opacity="0.6" d="M282.248 221.596L279.378 221.536C270.618 221.326 263.678 213.776 263.868 204.656C263.868 194.716 271.568 186.656 281.108 186.566C290.648 186.516 298.428 194.566 298.478 204.466V205.466C298.238 214.596 290.988 221.786 282.248 221.596Z" fill="black"/>
<path d="M268.838 190.716C268.768 190.426 268.639 190.153 268.459 189.915C268.28 189.677 268.053 189.479 267.793 189.332C267.533 189.186 267.245 189.095 266.949 189.064C266.652 189.034 266.352 189.065 266.068 189.156L266.838 192.156C266.678 191.954 266.482 191.784 266.258 191.656C265.998 191.509 265.711 191.419 265.414 191.39C265.118 191.361 264.818 191.395 264.536 191.489C264.253 191.584 263.993 191.736 263.773 191.937C263.553 192.138 263.377 192.383 263.258 192.656L267.158 194.946C267.361 194.555 267.451 194.115 267.418 193.676C267.976 193.442 268.429 193.012 268.691 192.466C268.952 191.92 269.005 191.298 268.838 190.716Z" fill="#4988FF"/>
<path opacity="0.6" d="M268.838 190.716C268.768 190.426 268.639 190.153 268.459 189.915C268.28 189.677 268.053 189.479 267.793 189.332C267.533 189.186 267.245 189.095 266.949 189.064C266.652 189.034 266.352 189.065 266.068 189.156L266.838 192.156C266.678 191.954 266.482 191.784 266.258 191.656C265.998 191.509 265.711 191.419 265.414 191.39C265.118 191.361 264.818 191.395 264.536 191.489C264.253 191.584 263.993 191.736 263.773 191.937C263.553 192.138 263.377 192.383 263.258 192.656L267.158 194.946C267.361 194.555 267.451 194.115 267.418 193.676C267.976 193.442 268.429 193.012 268.691 192.466C268.952 191.92 269.005 191.298 268.838 190.716Z" fill="black"/>
<path d="M273.568 226.056C270.875 226.421 268.204 226.935 265.568 227.596C268.668 235.196 263.808 246.936 263.808 246.936L268.398 261.066C265.228 267.556 262.618 270.776 261.538 276.066C264.458 281.766 285.068 287.206 298.488 276.816C298.488 276.816 298.058 262.386 296.348 253.976C300.738 245.406 300.028 242.886 299.128 239.896C297.038 232.946 292.818 230.276 287.788 225.376L284.788 225.056L273.568 226.056Z" fill="#37474F"/>
<path d="M268.908 266.726C271.398 264.176 276.678 263.446 276.678 263.446L271.828 260.686L266.408 247.596C268.682 243.14 269.806 238.187 269.678 233.186L266.558 232.436C266.938 239.366 263.798 246.946 263.798 246.946L268.388 261.076C265.218 267.566 262.608 270.786 261.528 276.076C263.528 279.976 273.818 283.756 284.418 282.416C270.218 281.456 266.518 269.196 268.908 266.726Z" fill="#263238"/>
<path d="M283.258 282.526L283.838 282.466C283.643 282.47 283.449 282.49 283.258 282.526Z" fill="#E6E6E6"/>
<path d="M292.038 195.426C293.758 197.006 295.908 200.426 295.738 210.426C295.588 218.926 292.958 221.036 291.628 221.646C290.298 222.256 287.748 221.906 285.258 221.486V225.006C285.258 225.006 288.538 228.646 288.338 231.006C288.138 233.366 283.658 234.316 280.428 232.006C278.152 230.283 276.132 228.246 274.428 225.956V215.266C274.428 215.266 272.968 216.756 270.428 214.516C268.428 212.656 267.668 209.516 269.258 207.816C269.666 207.414 270.167 207.118 270.716 206.954C271.266 206.79 271.847 206.764 272.409 206.878C272.971 206.991 273.496 207.241 273.939 207.605C274.382 207.969 274.728 208.437 274.948 208.966C278.759 208.568 282.47 207.498 285.908 205.806C287.841 204.876 289.456 203.394 290.547 201.546C291.638 199.698 292.157 197.569 292.038 195.426Z" fill="#FFBDA7"/>
<path d="M285.248 208.516C285.247 208.71 285.19 208.9 285.083 209.062C284.977 209.225 284.825 209.352 284.647 209.43C284.469 209.507 284.272 209.531 284.08 209.499C283.889 209.466 283.711 209.379 283.568 209.247C283.426 209.115 283.325 208.944 283.278 208.756C283.231 208.567 283.239 208.369 283.303 208.186C283.366 208.002 283.482 207.841 283.636 207.722C283.789 207.603 283.974 207.532 284.168 207.516C284.442 207.51 284.708 207.612 284.91 207.798C285.111 207.985 285.232 208.242 285.248 208.516Z" fill="#263238"/>
<path d="M285.638 215.596L288.308 216.466C288.265 216.649 288.186 216.82 288.074 216.971C287.963 217.121 287.822 217.247 287.659 217.341C287.497 217.434 287.318 217.494 287.132 217.516C286.946 217.537 286.757 217.52 286.578 217.466C286.214 217.33 285.916 217.062 285.741 216.715C285.567 216.369 285.53 215.969 285.638 215.596Z" fill="#F79776"/>
<path d="M294.908 204.686L292.478 203.856C292.516 203.694 292.588 203.542 292.689 203.409C292.79 203.276 292.918 203.166 293.064 203.086C293.21 203.006 293.371 202.958 293.537 202.944C293.704 202.93 293.871 202.951 294.028 203.006C294.356 203.128 294.627 203.368 294.79 203.678C294.952 203.988 294.994 204.347 294.908 204.686Z" fill="#263238"/>
<path d="M274.958 208.016V211.606C275.188 211.616 275.418 211.578 275.633 211.496C275.849 211.413 276.045 211.287 276.21 211.126C276.374 210.965 276.504 210.772 276.592 210.559C276.679 210.345 276.722 210.117 276.718 209.886C276.721 209.408 276.54 208.947 276.213 208.599C275.885 208.25 275.436 208.042 274.958 208.016Z" fill="#4988FF"/>
<path opacity="0.6" d="M274.958 208.016V211.606C275.188 211.616 275.418 211.578 275.633 211.496C275.849 211.413 276.045 211.287 276.21 211.126C276.374 210.965 276.504 210.772 276.592 210.559C276.679 210.345 276.722 210.117 276.718 209.886C276.721 209.408 276.54 208.947 276.213 208.599C275.885 208.25 275.436 208.042 274.958 208.016Z" fill="black"/>
<path d="M294.028 208.166C294.05 208.454 293.957 208.738 293.77 208.958C293.582 209.177 293.315 209.313 293.028 209.336C292.808 209.358 292.586 209.313 292.391 209.207C292.197 209.102 292.038 208.941 291.936 208.744C291.833 208.548 291.792 208.326 291.817 208.106C291.842 207.886 291.932 207.678 292.076 207.51C292.22 207.342 292.411 207.22 292.624 207.161C292.837 207.102 293.064 207.109 293.273 207.179C293.483 207.25 293.667 207.381 293.802 207.557C293.936 207.733 294.015 207.945 294.028 208.166Z" fill="#263238"/>
<path d="M288.328 206.716L288.308 213.676L291.548 212.606L288.328 206.716Z" fill="#F79776"/>
<path d="M285.258 221.526C282.628 221.186 277.258 219.596 276.368 217.376C276.706 218.49 277.372 219.476 278.278 220.206C279.898 221.636 285.278 223.206 285.278 223.206L285.258 221.526Z" fill="#F79776"/>
<path d="M253.258 261.596C253.258 261.596 259.678 270.716 260.778 271.906C261.878 273.096 262.638 272.696 263.828 272.166C265.279 271.58 266.769 271.096 268.288 270.716C270.288 270.226 270.668 272.036 268.728 273.326C267.328 274.266 265.728 274.666 266.388 275.436C267.756 276.675 269.343 277.648 271.068 278.306C275.808 280.176 275.438 281.116 274.568 282.646C273.808 283.986 271.568 286.866 263.128 283.466C259.628 282.056 254.708 278.066 252.388 275.466C249.038 271.756 243.808 265.106 243.808 265.106L253.258 261.596Z" fill="#FFBDA7"/>
<path d="M266.798 227.266C264.478 227.416 260.108 227.976 254.628 237.076C249.818 245.076 242.368 255.886 240.988 259.756C240.428 261.326 242.608 264.576 245.418 267.906C249.248 267.736 252.738 265.086 254.548 262.966C254.073 261.839 253.483 260.763 252.788 259.756L264.028 246.936C264.028 246.936 268.298 243.026 269.188 237.936C270.148 232.416 269.848 228.076 266.798 227.266Z" fill="#455A64"/>
<path d="M329.728 244.526L302.018 251.826L294.388 283.176L320.738 275.526L329.728 244.526Z" fill="#4988FF"/>
<path opacity="0.25" d="M329.728 244.526L302.018 251.826L294.388 283.176L320.738 275.526L329.728 244.526Z" fill="black"/>
<g opacity="0.1">
<path d="M317.208 266.726C317.672 267.694 318.411 268.504 319.332 269.055C320.253 269.607 321.316 269.875 322.388 269.826L322.588 269.136L317.208 266.726Z" fill="black"/>
</g>
<g opacity="0.1">
<path d="M321.378 249.506L321.608 248.446C321.738 247.866 320.108 247.836 317.978 248.446L313.888 249.446C311.758 250.006 309.888 250.926 309.798 251.506L309.578 252.566L321.378 249.506Z" fill="black"/>
</g>
<path d="M323.508 245.536C323.588 245.166 322.928 245.066 322.038 245.316L320.418 245.766C320.418 245.766 320.898 243.476 317.318 244.276C316.357 244.418 315.449 244.805 314.681 245.401C313.914 245.996 313.313 246.78 312.938 247.676L311.218 248.166C310.218 248.436 309.398 248.946 309.288 249.306L309.078 249.966L323.358 246.206L323.508 245.536Z" fill="#37474F"/>
<path d="M321.538 246.656C320.238 246.976 319.688 247.146 319.538 248.046C319.388 248.946 319.218 249.826 319.218 249.826L312.908 251.496C312.908 251.496 313.218 250.196 313.318 249.696C313.418 249.196 313.198 248.876 312.188 249.146L312.108 248.746L322.008 246.216L321.538 246.656Z" fill="#37474F"/>
<path d="M321.758 249.596L321.988 248.536C322.118 247.956 320.488 247.926 318.358 248.536L314.268 249.536C312.138 250.096 310.268 251.016 310.178 251.596L309.958 252.656L321.758 249.596Z" fill="#37474F"/>
<path d="M326.808 254.596C326.808 254.596 325.808 258.146 325.538 258.986C325.268 259.826 322.188 261.356 320.158 261.916C318.128 262.476 315.888 263.136 316.858 265.986C317.738 268.616 321.098 269.216 322.798 269.136C324.498 269.056 326.848 267.436 327.798 264.806C328.968 261.446 328.338 257.866 328.798 255.906C329.258 253.946 327.828 253.426 326.808 254.596Z" fill="#FFBDA7"/>
<path d="M221.838 255.426C218.038 251.596 216.678 253.086 216.198 257.286C216.02 259.048 215.592 260.775 214.928 262.416C214.81 261.544 214.571 260.693 214.218 259.886C214.051 259.45 213.725 259.093 213.306 258.887C212.887 258.682 212.405 258.642 211.958 258.776C211.588 258.926 212.048 259.776 211.958 261.446C211.888 263.526 211.208 264.676 211.698 266.886C211.869 267.718 211.737 268.583 211.328 269.326C209.328 273.126 202.738 280.146 198.118 285.206L180.568 269.356C174.568 263.956 172.628 261.526 166.838 261.916C168.649 262.603 170.318 263.621 171.758 264.916C174.448 267.186 173.808 280.176 173.808 280.176C173.808 280.176 193.728 294.456 195.808 295.816C196.108 296.016 196.418 296.196 196.718 296.366C197.701 296.879 198.829 297.044 199.918 296.835C201.007 296.627 201.994 296.056 202.718 295.216C206.968 290.356 213.168 280.786 216.718 275.816C218.341 273.411 219.788 270.891 221.048 268.276C224.608 261.206 224.218 257.826 221.838 255.426Z" fill="#914F4E"/>
<path d="M167.458 261.596C168.857 261.342 170.294 261.388 171.674 261.733C173.053 262.078 174.343 262.713 175.458 263.596C178.878 266.196 193.458 279.596 193.458 279.596C193.458 279.596 193.858 286.686 186.458 290.906L168.588 278.306L167.458 261.596Z" fill="#4988FF"/>
<path opacity="0.3" d="M167.458 261.596C168.857 261.342 170.294 261.388 171.674 261.733C173.053 262.078 174.343 262.713 175.458 263.596C178.878 266.196 193.458 279.596 193.458 279.596C193.458 279.596 193.858 286.686 186.458 290.906L168.588 278.306L167.458 261.596Z" fill="black"/>
<path d="M150.208 421.556H142.638V435.056H150.208V421.556Z" fill="#914F4E"/>
<path d="M168.888 420.836L176.458 421.106L176.838 406.816L168.888 406.546V420.836Z" fill="#914F4E"/>
<path d="M141.568 304.666C141.568 312.196 142.678 372.806 142.678 372.806C142.508 374.966 140.558 378.966 140.978 387.286C141.548 398.596 142.318 428.286 142.318 428.286C143.618 428.952 145.053 429.313 146.513 429.343C147.974 429.372 149.422 429.069 150.748 428.456C150.748 428.456 157.908 387.306 159.268 376.106C160.448 366.326 162.458 333.406 162.458 333.406L166.558 371.686C165.684 375.802 165.368 380.016 165.618 384.216C165.978 389.396 168.408 416.386 168.408 416.386C169.717 417.161 171.186 417.626 172.702 417.748C174.218 417.869 175.742 417.643 177.158 417.086C177.158 417.086 181.458 376.436 181.548 371.686C181.648 366.266 179.028 304.566 179.028 304.566L141.568 304.666Z" fill="#37474F"/>
<path d="M150.208 431.156V430.036C150.938 430.366 152.618 437.036 155.618 439.906C158.008 442.176 161.268 444.796 162.098 447.326C162.928 449.856 157.558 451.406 155.328 450.996C152.738 450.516 148.238 448.616 147.118 446.856C145.998 445.096 145.458 442.486 144.538 441.196C143.618 439.906 141.538 438.466 141.018 436.966C140.869 435.571 141.016 434.161 141.448 432.826C141.798 431.436 142.178 429.906 142.638 430.036V430.896C143.706 431.771 145.048 432.242 146.428 432.226C147.528 432.266 150.218 432.036 150.208 431.156Z" fill="#263238"/>
<path d="M176.538 418.676C176.928 418.676 177.248 419.266 178.118 420.246C179.404 421.599 180.908 422.724 182.568 423.576C185.408 425.056 190.918 427.336 193.418 428.506C194.978 429.236 194.898 431.196 193.288 432.306C191.678 433.416 187.788 434.226 183.118 433.146C180.578 432.546 177.258 430.146 175.118 430.236C172.978 430.326 169.118 430.336 167.548 429.236C165.978 428.136 166.618 425.746 167.058 423.716C167.538 421.486 168.138 418.016 168.838 418.166V418.936C169.748 420.376 174.448 420.936 176.448 419.936L176.538 418.676Z" fill="#263238"/>
<path d="M162.458 333.426C166.398 332.14 169.999 329.987 172.998 327.126C172.998 327.126 170.998 331.126 164.918 334.786L166.208 368.976L162.458 333.426Z" fill="#263238"/>
<path d="M145.508 263.596C145.508 263.596 139.588 264.136 140.008 275.426L141.318 293.426L141.198 320.426C146.758 326.736 171.448 326.276 179.898 319.916C179.898 319.916 179.028 287.986 178.458 275.696C178.048 266.966 176.038 262.566 167.458 261.606L156.898 262.066L145.508 263.596Z" fill="#4988FF"/>
<path opacity="0.3" d="M162.338 269.516L163.698 278.996L166.868 278.936L163.288 279.496L162.338 269.516Z" fill="black"/>
<path d="M126.718 302.356C129.788 277.656 136.858 265.356 145.468 263.936L144.858 279.736C141.273 288.163 138.526 296.922 136.658 305.886C135.528 311.966 134.218 322.536 134.558 327.726C134.626 328.641 135.016 329.502 135.658 330.156C137.358 331.886 137.868 333.386 139.008 335.336C139.908 336.866 140.828 337.406 140.588 337.776C140.279 338.165 139.83 338.418 139.337 338.482C138.844 338.545 138.346 338.414 137.948 338.116C137.046 337.477 136.22 336.735 135.488 335.906C135.378 338.26 135.802 340.609 136.728 342.776C138.728 346.936 138.408 349.126 132.828 347.896C129.328 347.136 126.828 343.446 125.828 334.836C125.565 331.623 125.508 328.397 125.658 325.176C126.038 316.946 126.108 307.296 126.718 302.356Z" fill="#914F4E"/>
<path d="M145.958 263.526C141.488 263.526 137.408 264.296 134.158 270.526C131.048 276.526 128.658 289.216 127.448 293.366C127.448 293.366 133.978 297.226 139.988 297.126L144.218 282.446C144.218 282.446 147.078 275.596 145.958 263.526Z" fill="#4988FF"/>
<path opacity="0.3" d="M145.958 263.526C141.488 263.526 137.408 264.296 134.158 270.526C131.048 276.526 128.658 289.216 127.448 293.366C127.448 293.366 133.978 297.226 139.988 297.126L144.218 282.446C144.218 282.446 147.078 275.596 145.958 263.526Z" fill="black"/>
<path d="M155.188 238.106C155.278 240.316 156.016 242.45 157.309 244.244C158.603 246.038 160.395 247.411 162.463 248.195C164.531 248.978 166.784 249.136 168.941 248.65C171.098 248.163 173.065 247.053 174.596 245.458C176.127 243.863 177.156 241.852 177.554 239.677C177.952 237.502 177.702 235.257 176.835 233.223C175.968 231.189 174.522 229.454 172.677 228.235C170.832 227.016 168.669 226.366 166.458 226.366C163.408 226.432 160.508 227.705 158.395 229.906C156.282 232.107 155.129 235.056 155.188 238.106Z" fill="#263238"/>
<path d="M148.018 243.976C148.018 243.976 149.748 252.436 150.438 253.826C150.888 254.677 151.652 255.319 152.568 255.616L152.438 249.616L148.018 243.976Z" fill="#263238"/>
<path d="M150.188 231.856C150.188 231.856 148.908 231.596 147.628 233.596C146.498 235.356 146.248 239.316 148.018 243.966L151.268 244.356L150.188 231.856Z" fill="#263238"/>
<path d="M152.248 244.366C151.598 244.776 150.668 243.466 149.858 242.596C149.048 241.726 146.428 240.516 145.118 243.396C143.808 246.276 146.268 250.206 148.338 250.876C151.908 252.046 152.438 249.656 152.438 249.656L152.718 263.066C157.448 270.386 168.178 270.126 164.318 262.706V258.596C165.907 258.86 167.52 258.948 169.128 258.856C171.748 258.436 173.398 256.276 174.198 253.316C175.478 248.566 175.958 244.736 174.878 235.396C173.688 225.156 162.258 225.046 156.078 229.096C149.898 233.146 152.248 244.366 152.248 244.366Z" fill="#914F4E"/>
<path d="M152.658 260.056C153.758 262.308 155.339 264.291 157.288 265.866C158.946 267.089 160.867 267.907 162.898 268.256C161.224 269.39 159.851 270.914 158.898 272.696C157.718 275.306 149.378 268.136 149.458 263.046C149.458 263.046 150.768 257.936 152.558 257.606L152.658 260.056Z" fill="#263238"/>
<path d="M162.908 268.256C162.908 268.256 165.478 266.976 164.328 262.706V258.596L165.458 258.746C166.775 260.029 167.71 261.653 168.158 263.436C168.418 264.606 169.058 270.526 167.928 271.696C166.798 272.866 165.208 268.596 162.908 268.256Z" fill="#263238"/>
<path d="M152.248 245.516C151.918 245.516 150.668 243.366 149.858 242.596C148.728 241.526 150.188 231.856 150.188 231.856C149.893 231.022 149.839 230.121 150.029 229.257C150.22 228.393 150.649 227.599 151.268 226.966C152.818 225.196 155.398 224.966 159.798 224.286C161.555 224.07 163.298 223.753 165.018 223.336C166.834 222.657 168.582 221.806 170.238 220.796C170.759 220.459 171.382 220.317 171.998 220.396C172.282 220.492 172.536 220.66 172.734 220.885C172.932 221.11 173.068 221.383 173.128 221.676C173.228 222.262 173.228 222.861 173.128 223.446C173.684 222.929 174.423 222.653 175.182 222.679C175.941 222.706 176.659 223.032 177.178 223.586C177.669 224.171 177.989 224.881 178.102 225.636C178.215 226.391 178.116 227.163 177.818 227.866C177.179 229.265 176.134 230.44 174.818 231.236C169.288 234.976 162.758 233.936 156.558 233.236C156.265 233.171 155.959 233.191 155.678 233.296C154.678 233.736 154.498 236.746 154.328 237.616C153.828 240.516 153.348 245.496 152.248 245.516Z" fill="#263238"/>
<path d="M150.188 232.366L146.248 230.156C146.368 229.883 146.543 229.638 146.763 229.437C146.983 229.236 147.243 229.084 147.526 228.989C147.809 228.895 148.108 228.861 148.405 228.89C148.701 228.919 148.989 229.009 149.248 229.156C149.772 229.482 150.157 229.99 150.331 230.582C150.504 231.174 150.453 231.809 150.188 232.366Z" fill="#263238"/>
<path d="M164.308 258.596C164.308 258.596 158.458 257.366 156.408 256.236C155.191 255.571 154.204 254.553 153.578 253.316C153.883 254.558 154.43 255.727 155.188 256.756C156.678 258.756 164.308 260.226 164.308 260.226V258.596Z" fill="#783736"/>
<path d="M162.188 242.496C162.195 242.656 162.17 242.816 162.114 242.967C162.059 243.118 161.975 243.256 161.866 243.374C161.758 243.492 161.627 243.587 161.481 243.654C161.336 243.722 161.178 243.76 161.018 243.766C160.694 243.748 160.391 243.604 160.172 243.365C159.953 243.125 159.837 242.81 159.848 242.486C159.848 242.176 159.971 241.878 160.191 241.659C160.41 241.439 160.708 241.316 161.018 241.316C161.328 241.316 161.626 241.439 161.845 241.659C162.065 241.878 162.188 242.176 162.188 242.486V242.496Z" fill="#263238"/>
<path d="M160.178 237.416L157.668 238.856C157.487 238.5 157.447 238.089 157.554 237.704C157.661 237.319 157.909 236.988 158.248 236.776C158.415 236.683 158.6 236.626 158.79 236.608C158.98 236.59 159.172 236.612 159.354 236.672C159.535 236.732 159.702 236.83 159.844 236.958C159.986 237.086 160.1 237.242 160.178 237.416Z" fill="#263238"/>
<path d="M163.778 251.286L166.458 252.336C166.405 252.52 166.315 252.691 166.193 252.839C166.071 252.986 165.92 253.107 165.749 253.194C165.578 253.28 165.391 253.33 165.2 253.341C165.009 253.352 164.818 253.323 164.638 253.256C164.273 253.097 163.981 252.805 163.821 252.44C163.662 252.075 163.646 251.662 163.778 251.286Z" fill="#783736"/>
<path d="M173.908 238.816L171.268 237.536C171.333 237.357 171.435 237.194 171.567 237.057C171.699 236.92 171.859 236.813 172.035 236.742C172.212 236.671 172.401 236.639 172.591 236.646C172.781 236.654 172.968 236.702 173.138 236.786C173.495 236.969 173.771 237.278 173.913 237.653C174.056 238.028 174.054 238.443 173.908 238.816Z" fill="#263238"/>
<path d="M172.178 242.496C172.193 242.66 172.174 242.825 172.122 242.98C172.07 243.136 171.985 243.279 171.875 243.4C171.764 243.521 171.63 243.618 171.48 243.684C171.329 243.751 171.167 243.785 171.003 243.785C170.839 243.785 170.677 243.751 170.526 243.684C170.376 243.618 170.242 243.521 170.131 243.4C170.021 243.279 169.936 243.136 169.884 242.98C169.832 242.825 169.813 242.66 169.828 242.496C169.821 242.337 169.846 242.177 169.902 242.027C169.957 241.877 170.041 241.74 170.15 241.622C170.259 241.505 170.39 241.411 170.536 241.344C170.681 241.278 170.838 241.241 170.998 241.236C171.321 241.249 171.625 241.389 171.846 241.625C172.067 241.86 172.186 242.173 172.178 242.496Z" fill="#263238"/>
<path d="M165.528 241.586L165.658 248.996L169.868 248.036L165.528 241.586Z" fill="#783736"/>
<path d="M160.378 239.436C159.601 239.436 158.856 239.745 158.306 240.294C157.757 240.844 157.448 241.589 157.448 242.366C157.448 243.143 157.757 243.889 158.306 244.438C158.856 244.987 159.601 245.296 160.378 245.296H160.908C161.685 245.296 162.43 244.987 162.98 244.438C163.529 243.889 163.838 243.143 163.838 242.366C163.838 241.589 163.529 240.844 162.98 240.294C162.43 239.745 161.685 239.436 160.908 239.436H160.378ZM156.908 242.366C156.9 241.44 157.26 240.548 157.908 239.886C158.557 239.224 159.441 238.847 160.368 238.836H160.908C161.757 238.948 162.537 239.364 163.102 240.008C163.667 240.652 163.979 241.48 163.979 242.336C163.979 243.193 163.667 244.02 163.102 244.664C162.537 245.308 161.757 245.725 160.908 245.836H160.378C159.459 245.831 158.58 245.464 157.93 244.814C157.28 244.164 156.913 243.285 156.908 242.366Z" fill="#263238"/>
<path d="M170.908 239.436C170.131 239.436 169.386 239.745 168.836 240.294C168.287 240.844 167.978 241.589 167.978 242.366C167.978 243.143 168.287 243.889 168.836 244.438C169.386 244.987 170.131 245.296 170.908 245.296H171.438C172.215 245.296 172.96 244.987 173.51 244.438C174.059 243.889 174.368 243.143 174.368 242.366C174.368 241.589 174.059 240.844 173.51 240.294C172.96 239.745 172.215 239.436 171.438 239.436H170.908ZM167.448 242.366C167.44 241.44 167.8 240.548 168.448 239.886C169.097 239.224 169.981 238.847 170.908 238.836H171.438C172.287 238.948 173.067 239.364 173.632 240.008C174.197 240.652 174.509 241.48 174.509 242.336C174.509 243.193 174.197 244.02 173.632 244.664C173.067 245.308 172.287 245.725 171.438 245.836H170.908C169.994 245.823 169.123 245.452 168.479 244.804C167.836 244.155 167.473 243.28 167.468 242.366H167.448Z" fill="#263238"/>
<path d="M164.328 241.666C164.537 241.376 164.812 241.139 165.13 240.974C165.448 240.809 165.8 240.72 166.158 240.716C166.453 240.684 166.752 240.724 167.029 240.832C167.305 240.94 167.552 241.113 167.748 241.336L168.218 240.976C167.968 240.671 167.646 240.434 167.281 240.285C166.916 240.137 166.52 240.082 166.128 240.126C165.674 240.131 165.228 240.245 164.827 240.459C164.427 240.673 164.084 240.981 163.828 241.356L164.328 241.666Z" fill="#263238"/>
<path d="M157.228 241.636H151.268V242.226H157.228V241.636Z" fill="#263238"/>
</svg>
