<svg width="22" height="23" viewBox="0 0 22 23" fill="none" xmlns="http://www.w3.org/2000/svg">
<path d="M11.3916 1.875C6.31797 1.875 2.2041 6.18477 2.2041 11.5C2.2041 16.8152 6.31797 21.125 11.3916 21.125C16.4652 21.125 20.5791 16.8152 20.5791 11.5C20.5791 6.18477 16.4652 1.875 11.3916 1.875ZM11.3916 19.4922C7.1793 19.4922 3.7627 15.9129 3.7627 11.5C3.7627 7.08711 7.1793 3.50781 11.3916 3.50781C15.6039 3.50781 19.0205 7.08711 19.0205 11.5C19.0205 15.9129 15.6039 19.4922 11.3916 19.4922Z" fill="#808080"/>
<path d="M10.4072 7.71875C10.4072 7.99225 10.5109 8.25456 10.6955 8.44795C10.8801 8.64135 11.1305 8.75 11.3916 8.75C11.6527 8.75 11.9031 8.64135 12.0877 8.44795C12.2723 8.25456 12.376 7.99225 12.376 7.71875C12.376 7.44525 12.2723 7.18294 12.0877 6.98955C11.9031 6.79615 11.6527 6.6875 11.3916 6.6875C11.1305 6.6875 10.8801 6.79615 10.6955 6.98955C10.5109 7.18294 10.4072 7.44525 10.4072 7.71875ZM11.8838 10.125H10.8994C10.8092 10.125 10.7354 10.2023 10.7354 10.2969V16.1406C10.7354 16.2352 10.8092 16.3125 10.8994 16.3125H11.8838C11.974 16.3125 12.0479 16.2352 12.0479 16.1406V10.2969C12.0479 10.2023 11.974 10.125 11.8838 10.125Z" fill="#808080"/>
</svg>
