<svg width="18" height="17" viewBox="0 0 18 17" fill="none" xmlns="http://www.w3.org/2000/svg">
<circle cx="9.11035" cy="8.14453" r="7.61426" stroke="#909297"/>
<mask id="path-2-inside-1_2_455" fill="white">
<path d="M9.42371 7.83134V5.63957H8.79749V7.83134H6.60571V8.45757H8.79749V10.6493H9.42371V8.45757H11.6155V7.83134H9.42371Z"/>
</mask>
<path d="M9.42371 7.83134V5.63957H8.79749V7.83134H6.60571V8.45757H8.79749V10.6493H9.42371V8.45757H11.6155V7.83134H9.42371Z" fill="#909297"/>
<path d="M9.42371 7.83134H-0.57629V17.8313H9.42371V7.83134ZM9.42371 5.63957H19.4237V-4.36043H9.42371V5.63957ZM8.79749 5.63957V-4.36043H-1.20251V5.63957H8.79749ZM8.79749 7.83134V17.8313H18.7975V7.83134H8.79749ZM6.60571 7.83134V-2.16866H-3.39429V7.83134H6.60571ZM6.60571 8.45757H-3.39429V18.4576H6.60571V8.45757ZM8.79749 8.45757H18.7975V-1.54243H8.79749V8.45757ZM8.79749 10.6493H-1.20251V20.6493H8.79749V10.6493ZM9.42371 10.6493V20.6493H19.4237V10.6493H9.42371ZM9.42371 8.45757V-1.54243H-0.57629V8.45757H9.42371ZM11.6155 8.45757V18.4576H21.6155V8.45757H11.6155ZM11.6155 7.83134H21.6155V-2.16866H11.6155V7.83134ZM19.4237 7.83134V5.63957H-0.57629V7.83134H19.4237ZM9.42371 -4.36043H8.79749V15.6396H9.42371V-4.36043ZM-1.20251 5.63957V7.83134H18.7975V5.63957H-1.20251ZM8.79749 -2.16866H6.60571V17.8313H8.79749V-2.16866ZM-3.39429 7.83134V8.45757H16.6057V7.83134H-3.39429ZM6.60571 18.4576H8.79749V-1.54243H6.60571V18.4576ZM-1.20251 8.45757V10.6493H18.7975V8.45757H-1.20251ZM8.79749 20.6493H9.42371V0.649341H8.79749V20.6493ZM19.4237 10.6493V8.45757H-0.57629V10.6493H19.4237ZM9.42371 18.4576H11.6155V-1.54243H9.42371V18.4576ZM21.6155 8.45757V7.83134H1.61549V8.45757H21.6155ZM11.6155 -2.16866H9.42371V17.8313H11.6155V-2.16866Z" fill="#909297" mask="url(#path-2-inside-1_2_455)"/>
</svg>
