<svg width="450" height="451" viewBox="0 0 450 451" fill="none" xmlns="http://www.w3.org/2000/svg">
<g clip-path="url(#clip0_525_53)">
<rect x="0.438599" y="0.57959" width="449.123" height="449.123" rx="224.561" fill="#E2E9FF"/>
<rect x="159.779" y="124.5" width="130.441" height="40.0678" fill="#BECEFF"/>
<path d="M288.25 356.509H161.75C160.723 356.509 159.863 357.287 159.76 358.309L151.257 442.842C151.138 444.02 152.063 445.043 153.247 445.043H296.753C297.937 445.043 298.862 444.02 298.743 442.842L290.24 358.309C290.137 357.287 289.277 356.509 288.25 356.509Z" fill="#7EAAFF"/>
<path d="M289.92 356.848H160.08L163.234 353.886L167.549 249.286H282.927L286.831 353.886L289.92 356.848Z" fill="#4385FF"/>
<path d="M253.27 124.5H196.73L199.972 164.569H249.639L253.27 124.5Z" fill="#1666FA"/>
<path fill-rule="evenodd" clip-rule="evenodd" d="M219.554 141.799H225.017H230.48C231.585 141.799 232.48 142.695 232.48 143.799V161.309C232.48 162.414 233.376 163.309 234.48 163.309H281.847C282.951 163.309 283.847 162.414 283.847 161.309V143.799C283.847 142.695 284.742 141.799 285.847 141.799H302.618C303.773 141.799 304.688 142.774 304.614 143.926L299.027 231.817C298.391 241.822 290.091 249.612 280.065 249.612H225.017H169.963C159.94 249.612 151.641 241.826 151.002 231.823L145.386 143.927C145.312 142.774 146.227 141.799 147.381 141.799H164.187C165.292 141.799 166.187 142.695 166.187 143.799V161.309C166.187 162.414 167.083 163.309 168.187 163.309H215.554C216.658 163.309 217.554 162.414 217.554 161.309V143.799C217.554 142.695 218.449 141.799 219.554 141.799Z" fill="#75A3FF"/>
<circle cx="225" cy="203.847" r="20.9875" fill="#FEFEFE" stroke="#CCE2FE" stroke-width="8"/>
<path d="M225 46.1079L319.944 125.57H130.056L225 46.1079Z" fill="#A2BCFF"/>
<path d="M295.453 429.234H225V232.852V46.123L319.941 125.579H290.22V141.804H302.701C303.854 141.804 304.769 142.777 304.697 143.929L299.209 231.44C298.642 240.476 291.904 247.92 282.969 249.38L286.906 354.212L289.775 356.615L297.442 427.018C297.57 428.201 296.644 429.234 295.453 429.234Z" fill="#D9D9D9" fill-opacity="0.2"/>
</g>
<rect x="17" y="17.1409" width="416" height="416" rx="208" stroke="#AECBFF" stroke-width="34"/>
<defs>
<clipPath id="clip0_525_53">
<rect y="0.140869" width="450" height="450" rx="225" fill="white"/>
</clipPath>
</defs>
</svg>
