<svg width="84" height="29" viewBox="0 0 84 29" fill="none" xmlns="http://www.w3.org/2000/svg">
<path d="M0.324305 22.3994H14.6883V18.7034H4.86031V2.79941H0.324305V22.3994ZM23.4134 22.6234C28.2014 22.6234 31.6734 19.4034 31.6734 14.8674C31.6734 10.3314 28.2014 7.11141 23.4134 7.11141C18.6254 7.11141 15.1254 10.3314 15.1254 14.8674C15.1254 19.4034 18.6254 22.6234 23.4134 22.6234ZM23.4134 19.0394C21.2294 19.0394 19.5494 17.4714 19.5494 14.8674C19.5494 12.2634 21.2294 10.6954 23.4134 10.6954C25.5974 10.6954 27.2494 12.2634 27.2494 14.8674C27.2494 17.4714 25.5974 19.0394 23.4134 19.0394ZM45.429 7.33541V9.26741C44.281 7.81141 42.545 7.11141 40.445 7.11141C36.273 7.11141 32.913 9.99541 32.913 14.3914C32.913 18.7874 36.273 21.6714 40.445 21.6714C42.405 21.6714 44.057 21.0554 45.205 19.7954V20.4394C45.205 23.1554 43.861 24.5554 40.781 24.5554C38.849 24.5554 36.749 23.8834 35.461 22.8474L33.725 25.9834C35.489 27.3554 38.261 28.0554 41.117 28.0554C46.549 28.0554 49.573 25.4794 49.573 19.8794V7.33541H45.429ZM41.313 18.0874C39.017 18.0874 37.337 16.6034 37.337 14.3914C37.337 12.1794 39.017 10.6954 41.313 10.6954C43.609 10.6954 45.261 12.1794 45.261 14.3914C45.261 16.6034 43.609 18.0874 41.313 18.0874ZM62.6322 5.23541C64.2562 5.23541 65.3482 4.17141 65.3482 2.71541C65.3482 1.37141 64.2562 0.363412 62.6322 0.363412C61.0082 0.363412 59.9162 1.42741 59.9162 2.79941C59.9162 4.17141 61.0082 5.23541 62.6322 5.23541ZM60.4482 22.3994H64.8162V7.33541H60.4482V22.3994ZM77.4661 7.11141C75.4221 7.11141 73.6581 7.81141 72.4821 9.09941V7.33541H68.3101V22.3994H72.6781V14.9514C72.6781 12.1794 74.1901 10.8914 76.2901 10.8914C78.2221 10.8914 79.3421 12.0114 79.3421 14.4474V22.3994H83.7101V13.7754C83.7101 9.18341 81.0221 7.11141 77.4661 7.11141Z" fill="#2972FE"/>
</svg>
