<svg width="17" height="18" viewBox="0 0 17 18" fill="none" xmlns="http://www.w3.org/2000/svg">
<path fill-rule="evenodd" clip-rule="evenodd" d="M0.996094 8.93046C0.996094 7.2929 2.3236 5.9654 3.96115 5.9654H13.0543C14.6918 5.9654 16.0193 7.2929 16.0193 8.93046V14.0701C16.0193 15.7077 14.6918 17.0352 13.0543 17.0352H3.96115C2.3236 17.0352 0.996094 15.7077 0.996094 14.0701V8.93046ZM3.96115 7.15142C2.97862 7.15142 2.18212 7.94792 2.18212 8.93046V14.0701C2.18212 15.0526 2.97862 15.8491 3.96115 15.8491H13.0543C14.0368 15.8491 14.8333 15.0526 14.8333 14.0701V8.93046C14.8333 7.94793 14.0368 7.15142 13.0543 7.15142H3.96115Z" fill="#909297"/>
<path fill-rule="evenodd" clip-rule="evenodd" d="M6.2052 2.14231C5.58959 2.74625 5.14745 3.67869 5.14745 4.99158V6.55841C5.14745 6.88592 4.88195 7.15142 4.55444 7.15142C4.22693 7.15142 3.96143 6.88592 3.96143 6.55841V4.99158C3.96143 3.39548 4.50766 2.1462 5.37461 1.29568C6.23513 0.451468 7.37638 0.0351406 8.50794 0.0351563C9.6395 0.0351719 10.7807 0.45153 11.6413 1.29575C12.5082 2.14628 13.0544 3.39555 13.0544 4.99162V6.55841C13.0544 6.88592 12.7889 7.15142 12.4614 7.15142C12.1339 7.15142 11.8684 6.88592 11.8684 6.55841V4.99162C11.8684 3.67877 11.4263 2.74633 10.8107 2.14237C10.1886 1.5321 9.35311 1.22119 8.50792 1.22118C7.66274 1.22117 6.82724 1.53205 6.2052 2.14231Z" fill="#909297"/>
<path fill-rule="evenodd" clip-rule="evenodd" d="M8.50805 13.082C8.18054 13.082 7.91504 12.8165 7.91504 12.489L7.91504 10.5122C7.91504 10.1847 8.18054 9.9192 8.50805 9.9192C8.83556 9.9192 9.10106 10.1847 9.10106 10.5122L9.10106 12.489C9.10106 12.8165 8.83556 13.082 8.50805 13.082Z" fill="#909297"/>
</svg>
