<svg width="21" height="22" viewBox="0 0 21 22" fill="none" xmlns="http://www.w3.org/2000/svg">
<path d="M17.3633 11.1511V10.6523V10.147L18.5633 9.04453C18.7845 8.83981 18.9297 8.55958 18.9731 8.25336C19.0166 7.94713 18.9556 7.63464 18.8008 7.37109L17.3258 4.74609C17.2162 4.54677 17.0586 4.38121 16.8688 4.26602C16.6791 4.15084 16.4638 4.09008 16.2446 4.08984C16.1087 4.08875 15.9736 4.11092 15.8446 4.15547L14.3258 4.69359C14.0636 4.51064 13.7901 4.34621 13.5071 4.20141L13.1883 2.54766C13.1312 2.24552 12.9746 1.97412 12.7461 1.78096C12.5176 1.5878 12.2316 1.48519 11.9383 1.49109H9.01332C8.72 1.48519 8.43406 1.5878 8.20553 1.78096C7.97701 1.97412 7.82047 2.24552 7.76332 2.54766L7.44457 4.20141C7.15953 4.34618 6.88392 4.5106 6.61957 4.69359L5.13207 4.12922C5.00163 4.09353 4.86655 4.08024 4.73207 4.08984C4.51286 4.09008 4.29757 4.15084 4.10779 4.26602C3.91801 4.38121 3.76042 4.54677 3.65082 4.74609L2.17582 7.37109C2.02993 7.63424 1.97572 7.94246 2.02247 8.24296C2.06922 8.54347 2.21402 8.81755 2.43207 9.01828L3.61332 10.1536V11.1577L2.43207 12.2602C2.20786 12.4623 2.0591 12.7413 2.01219 13.0476C1.96528 13.354 2.02325 13.6679 2.17582 13.9336L3.65082 16.5586C3.76042 16.7579 3.91801 16.9235 4.10779 17.0387C4.29757 17.1539 4.51286 17.2146 4.73207 17.2148C4.86791 17.2159 5.00302 17.1938 5.13207 17.1492L6.65082 16.6111C6.91303 16.7941 7.18655 16.9585 7.46957 17.1033L7.78832 18.757C7.84547 19.0592 8.00201 19.3306 8.23053 19.5237C8.45906 19.7169 8.745 19.8195 9.03832 19.8136H11.9883C12.2816 19.8195 12.5676 19.7169 12.7961 19.5237C13.0246 19.3306 13.1812 19.0592 13.2383 18.757L13.5571 17.1033C13.8421 16.9585 14.1177 16.7941 14.3821 16.6111L15.8946 17.1492C16.0236 17.1938 16.1587 17.2159 16.2946 17.2148C16.5138 17.2146 16.7291 17.1539 16.9188 17.0387C17.1086 16.9235 17.2662 16.7579 17.3758 16.5586L18.8008 13.9336C18.9467 13.6704 19.0009 13.3622 18.9542 13.0617C18.9074 12.7612 18.7626 12.4871 18.5446 12.2864L17.3633 11.1511ZM16.2446 15.9023L14.1008 15.1411C13.599 15.5874 13.0254 15.9363 12.4071 16.1714L11.9633 18.5273H9.01332L8.56957 16.1977C7.95608 15.9559 7.38564 15.6076 6.88207 15.1673L4.73207 15.9023L3.25707 13.2773L4.95707 11.7023C4.8415 11.023 4.8415 10.3276 4.95707 9.64828L3.25707 8.02734L4.73207 5.40234L6.87582 6.16359C7.37765 5.71727 7.95119 5.36839 8.56957 5.13328L9.01332 2.77734H11.9633L12.4071 5.10703C13.0206 5.34881 13.591 5.69709 14.0946 6.13734L16.2446 5.40234L17.7196 8.02734L16.0196 9.60234C16.1351 10.2817 16.1351 10.9771 16.0196 11.6564L17.7196 13.2773L16.2446 15.9023Z" fill="#909297"/>
<path d="M10.4883 14.5898C9.7466 14.5898 9.02158 14.3589 8.40489 13.9263C7.78821 13.4936 7.30756 12.8786 7.02373 12.1592C6.73991 11.4397 6.66564 10.648 6.81034 9.88418C6.95503 9.12037 7.31219 8.41878 7.83663 7.86811C8.36108 7.31744 9.02927 6.94243 9.75669 6.7905C10.4841 6.63857 11.2381 6.71655 11.9233 7.01457C12.6086 7.31259 13.1942 7.81727 13.6063 8.46479C14.0183 9.1123 14.2383 9.87358 14.2383 10.6523C14.2433 11.1709 14.1497 11.6853 13.963 12.1654C13.7764 12.6455 13.5003 13.0816 13.1511 13.4483C12.8019 13.815 12.3865 14.1048 11.9293 14.3008C11.472 14.4969 10.9821 14.5951 10.4883 14.5898ZM10.4883 8.02734C10.1579 8.01926 9.82934 8.08164 9.52254 8.21069C9.21575 8.33975 8.93708 8.53281 8.70338 8.77819C8.46968 9.02358 8.28581 9.31618 8.1629 9.63832C8.03999 9.96045 7.98059 10.3054 7.98828 10.6523C7.98059 10.9993 8.03999 11.3442 8.1629 11.6664C8.28581 11.9885 8.46968 12.2811 8.70338 12.5265C8.93708 12.7719 9.21575 12.9649 9.52254 13.094C9.82934 13.2231 10.1579 13.2854 10.4883 13.2773C10.8187 13.2854 11.1472 13.2231 11.454 13.094C11.7608 12.9649 12.0395 12.7719 12.2732 12.5265C12.5069 12.2811 12.6908 11.9885 12.8137 11.6664C12.9366 11.3442 12.996 10.9993 12.9883 10.6523C12.996 10.3054 12.9366 9.96045 12.8137 9.63832C12.6908 9.31618 12.5069 9.02358 12.2732 8.77819C12.0395 8.53281 11.7608 8.33975 11.454 8.21069C11.1472 8.08164 10.8187 8.01926 10.4883 8.02734Z" fill="#909297"/>
</svg>
