<svg width="1130" height="718" viewBox="0 0 1130 718" fill="none" xmlns="http://www.w3.org/2000/svg">
<g opacity="0.29">
<path d="M691.904 240.543C679.225 245.538 681.498 257.673 684.22 263.116C686.781 263.116 692.769 263.597 696.227 265.518C700.55 267.919 716.4 259.274 715.919 252.07C715.439 244.865 707.754 234.299 691.904 240.543Z" fill="#7FAAFE"/>
<path d="M518.857 197.035C517.426 193.695 525.284 188.752 529.392 186.698C530.982 187.493 534.679 189.6 536.747 191.668C539.331 194.252 537.939 197.035 534.163 201.805C530.386 206.576 520.646 201.209 518.857 197.035Z" fill="#D4E3FF"/>
<path d="M616.347 168.102C612.895 168.102 614.695 174.858 614.696 175.608C616.039 175.862 619.371 176.386 621.957 176.456C625.19 176.543 626.405 169.904 624.904 168.102C623.403 166.3 619.8 168.102 616.347 168.102Z" fill="#EAF1FF"/>
<ellipse cx="435.058" cy="234.637" rx="5.00798" ry="9.82353" transform="rotate(-58.2159 435.058 234.637)" fill="#93B8FE"/>
<path d="M434.576 401.919C426.114 405.841 434.146 417.484 439.219 422.815C445.325 423.331 458.825 423.279 463.984 418.945C470.434 413.528 460.115 408.626 454.697 403.467C449.28 398.308 445.153 397.018 434.576 401.919Z" fill="#D4E3FF"/>
<path d="M486.115 315.001C483.013 314.484 482.525 317.801 482.669 319.524C486.977 327.062 488.7 324.908 489.776 319.524C490.853 314.139 489.992 315.647 486.115 315.001Z" fill="#D4E3FF"/>
<path d="M566.099 433.695C563.554 430.401 560.921 435.067 559.922 437.813C561.607 443.802 564.976 443.802 569.281 442.305C573.586 440.807 569.281 437.813 566.099 433.695Z" fill="#D4E3FF"/>
<path d="M697.136 419.409C688.586 423.684 691.792 429.287 694.464 431.554C699.322 431.15 709.33 429.174 710.496 424.51C711.954 418.68 707.824 414.065 697.136 419.409Z" fill="#D4E3FF"/>
<path d="M236.37 82.9815C231.382 95.6641 241.811 102.272 247.649 103.991C249.395 102.117 253.828 98.0631 257.591 96.8423C262.294 95.3162 266.772 77.8261 261.173 73.2668C255.574 68.7076 242.604 67.1283 236.37 82.9815Z" fill="#7FAAFE"/>
<path d="M86.5809 179.944C83.162 178.715 84.9016 169.596 86.1988 165.19C87.8645 164.569 91.9263 163.3 94.848 163.196C98.5002 163.067 99.588 165.982 100.504 171.997C101.421 178.012 90.8546 181.481 86.5809 179.944Z" fill="#D4E3FF"/>
<path d="M131.863 88.8894C129.509 91.4155 135.68 94.703 136.23 95.2142C137.33 94.4043 139.985 92.3233 141.799 90.4787C144.067 88.173 140.037 82.7579 137.695 82.6283C135.354 82.4987 134.216 86.3632 131.863 88.8894Z" fill="#EAF1FF"/>
<ellipse cx="56.9757" cy="266.891" rx="5.00798" ry="9.82353" transform="rotate(-105.245 56.9757 266.891)" fill="#93B8FE"/>
<path d="M179.047 381.268C176.149 390.132 190.143 392.191 197.502 392.113C202.041 387.997 211.205 378.084 211.551 371.355C211.983 362.943 201.363 367.152 193.895 367.6C186.428 368.047 182.67 370.187 179.047 381.268Z" fill="#D4E3FF"/>
<path d="M150.579 284.311C148.087 286.228 150.181 288.845 151.54 289.915C159.992 291.901 159.59 289.172 156.385 284.714C153.179 280.256 153.695 281.914 150.579 284.311Z" fill="#D4E3FF"/>
<path d="M291.947 306.691C287.802 306.308 289.422 311.415 290.75 314.017C296.281 316.867 298.577 314.402 300.416 310.232C302.254 306.061 297.129 307.17 291.947 306.691Z" fill="#D4E3FF"/>
<path d="M370.812 201.073C368.112 210.244 374.398 211.717 377.878 211.307C380.893 207.476 386.269 198.807 383.651 194.775C380.379 189.734 374.187 189.61 370.812 201.073Z" fill="#D4E3FF"/>
<path d="M990.633 590.809C987.066 577.655 974.754 578.577 969.044 580.681C968.762 583.227 967.624 589.125 965.333 592.351C962.469 596.382 969.314 613.088 976.528 613.406C983.741 613.723 995.091 607.25 990.633 590.809Z" fill="#7FAAFE"/>
<path d="M1052.96 423.615C1056.44 422.561 1060.48 430.916 1062.07 435.226C1061.11 436.719 1058.6 440.161 1056.32 441.988C1053.47 444.271 1050.86 442.581 1046.53 438.301C1042.21 434.021 1048.61 424.932 1052.96 423.615Z" fill="#D4E3FF"/>
<path d="M1070.96 523.701C1071.35 520.27 1064.43 521.315 1063.69 521.232C1063.29 522.539 1062.4 525.793 1062.04 528.356C1061.6 531.559 1068.06 533.5 1070.02 532.206C1071.98 530.913 1070.58 527.133 1070.96 523.701Z" fill="#EAF1FF"/>
<ellipse cx="1024.83" cy="336.18" rx="5.00798" ry="9.82353" transform="rotate(38.1159 1024.83 336.18)" fill="#93B8FE"/>
<path d="M858.62 317.252C855.656 308.41 843.198 315.108 837.34 319.563C836.154 325.574 834.717 338.997 838.455 344.603C843.128 351.611 849.138 341.895 854.863 337.08C860.588 332.265 862.326 328.305 858.62 317.252Z" fill="#D4E3FF"/>
<path d="M939.325 378.062C940.181 375.037 936.938 374.186 935.209 374.139C927.242 377.589 929.193 379.539 934.426 381.203C939.658 382.867 938.255 381.844 939.325 378.062Z" fill="#D4E3FF"/>
<path d="M812.534 444.469C816.088 442.302 811.74 439.17 809.122 437.875C802.983 438.89 802.612 442.237 803.625 446.681C804.639 451.125 808.09 447.177 812.534 444.469Z" fill="#D4E3FF"/>
<path d="M812.281 576.282C808.974 567.312 803.052 569.881 800.504 572.287C800.371 577.16 801.231 587.325 805.737 588.998C811.371 591.089 816.414 587.494 812.281 576.282Z" fill="#D4E3FF"/>
<path d="M115.196 640.491C125.455 631.52 119.23 620.858 114.835 616.648C112.423 617.51 106.623 619.073 102.72 618.428C97.8412 617.621 85.8258 631.096 88.7027 637.719C91.5795 644.341 102.372 651.705 115.196 640.491Z" fill="#7FAAFE"/>
<path d="M292.792 623.224C295.263 625.887 289.527 633.186 286.35 636.503C284.585 636.289 280.394 635.549 277.752 634.298C274.449 632.734 274.823 629.646 276.773 623.882C278.724 618.119 289.703 619.895 292.792 623.224Z" fill="#D4E3FF"/>
<path d="M210.725 683.278C213.977 682.116 210.007 676.36 209.754 675.654C208.404 675.867 205.09 676.495 202.631 677.3C199.558 678.305 200.647 684.967 202.668 686.158C204.688 687.349 207.474 684.44 210.725 683.278Z" fill="#EAF1FF"/>
<ellipse cx="359.048" cy="559.612" rx="5.00798" ry="9.82353" transform="rotate(102.118 359.048 559.612)" fill="#93B8FE"/>
<path d="M303.204 401.926C309.852 395.386 298.371 387.125 291.799 383.812C285.877 385.381 273.181 389.973 269.781 395.79C265.531 403.062 276.898 404.205 283.736 407.24C290.573 410.276 294.894 410.101 303.204 401.926Z" fill="#D4E3FF"/>
<path d="M283.924 501.119C287.018 500.562 286.361 497.275 285.646 495.701C279.053 490.052 278.155 492.66 278.953 498.093C279.751 503.525 280.055 501.816 283.924 501.119Z" fill="#D4E3FF"/>
<path d="M168.659 416.267C172.165 418.512 173.074 413.232 173.09 410.311C169.487 405.238 166.316 406.371 162.766 409.23C159.216 412.089 164.277 413.46 168.659 416.267Z" fill="#D4E3FF"/>
<path d="M50.0737 473.819C56.6864 466.916 51.7814 462.718 48.5022 461.483C44.0637 463.499 35.3045 468.728 35.7762 473.512C36.3657 479.492 41.8077 482.448 50.0737 473.819Z" fill="#D4E3FF"/>
<path d="M826.492 114.859C836.734 123.85 846.486 116.278 850.082 111.368C848.91 109.091 846.599 103.546 846.726 99.5921C846.884 94.6496 831.947 84.5088 825.76 88.2308C819.573 91.9528 813.691 103.62 826.492 114.859Z" fill="#7FAAFE"/>
<path d="M866.944 288.646C864.629 291.446 856.639 286.719 852.934 284.005C852.914 282.227 853.096 277.976 853.989 275.192C855.106 271.712 858.217 271.676 864.187 272.853C870.156 274.03 869.838 285.146 866.944 288.646Z" fill="#D4E3FF"/>
<path d="M796.628 215.182C798.207 218.252 803.391 213.561 804.058 213.217C803.669 211.907 802.612 208.704 801.491 206.372C800.09 203.457 793.63 205.413 792.714 207.572C791.799 209.731 795.049 212.111 796.628 215.182Z" fill="#EAF1FF"/>
<ellipse cx="938.709" cy="345.97" rx="5.00798" ry="9.82353" transform="rotate(-175.432 938.709 345.97)" fill="#93B8FE"/>
<path d="M1087.69 269.893C1095.05 275.624 1101.73 263.157 1104.15 256.207C1101.82 250.542 1095.6 238.56 1089.38 235.954C1081.62 232.696 1081.98 244.114 1079.87 251.291C1077.75 258.469 1078.5 262.729 1087.69 269.893Z" fill="#D4E3FF"/>
<path d="M986.824 263.812C987.783 266.807 990.956 265.724 992.422 264.808C997.156 257.529 994.453 256.982 989.172 258.487C983.891 259.992 985.626 260.069 986.824 263.812Z" fill="#D4E3FF"/>
<path d="M1055.8 138.398C1054.03 142.168 1059.39 142.376 1062.28 142.008C1066.84 137.77 1065.3 134.775 1062 131.631C1058.7 128.488 1058 133.686 1055.8 138.398Z" fill="#D4E3FF"/>
<path d="M983.164 28.4024C990.876 34.0509 994.392 28.6369 995.186 25.2238C992.605 21.0887 986.27 13.0924 981.59 14.1885C975.739 15.5587 973.523 21.3419 983.164 28.4024Z" fill="#D4E3FF"/>
</g>
</svg>
