<svg width="48" height="55" viewBox="0 0 48 55" fill="none" xmlns="http://www.w3.org/2000/svg">
<path fill-rule="evenodd" clip-rule="evenodd" d="M21.696 54.3743C21.696 54.3743 26.2859 51.2885 30.3442 46.9602C34.4024 42.6327 36.3793 36.4138 36.3793 36.4138L44.2015 17.448L41.1743 7.82592L41.0241 7.53076C41.0241 7.53076 45.4691 25.6797 21.696 54.3743V54.3743Z" fill="#FEFEFE"/>
<path fill-rule="evenodd" clip-rule="evenodd" d="M0.695312 38.5661C2.35492 31.1344 7.15452 22.6907 14.5221 15.3063C24.9008 4.90328 37.3928 -0.40885 46.2095 0.985345C36.1908 3.03698 24.6926 9.49313 14.6807 19.5278C8.6677 25.5554 3.94742 32.1152 0.695312 38.5661V38.5661Z" fill="#FEFEFE"/>
<path fill-rule="evenodd" clip-rule="evenodd" d="M21.3867 54.536C28.1548 51.0474 35.1075 44.2656 40.3845 35.2674C47.8185 22.5923 49.7923 9.16134 46.2099 0.986084C46.7637 11.197 43.4315 23.956 36.2599 36.1834C31.953 43.5273 26.8026 49.7554 21.3867 54.536Z" fill="#FEFEFE"/>
<path fill-rule="evenodd" clip-rule="evenodd" d="M46.2103 0.985993L46.2004 0.985229L35.9507 2.71425L22.5189 11.4501L9.0369 24.5836L5.89844 28.4001L20.8204 15.5892L25.9892 10.7705L37.881 7.43986L39.6848 7.58554L41.0355 7.56418L42.8606 15.3787L37.2442 33.5894L28.6815 48.3421L35.5213 40.7434L42.901 25.9587L46.9105 11.4303L46.5558 2.82712L46.2767 1.25675L46.2103 0.985993Z" fill="#FEFEFE"/>
<path fill-rule="evenodd" clip-rule="evenodd" d="M0.696777 38.566C0.696777 38.566 2.41817 33.2798 5.50248 28.2125C8.58755 23.1444 14.0232 18.9801 14.0232 18.9801L18.2943 15.2605L30.8931 6.46667L39.3964 7.20648L41.0354 7.56418C41.0354 7.56418 21.988 7.98442 0.696777 38.566V38.566Z" fill="#FEFEFE"/>
<path fill-rule="evenodd" clip-rule="evenodd" d="M41.3709 42.8388C41.3709 42.8388 40.0431 35.4506 35.4029 28.6375L34.2832 30.278C37.1548 33.6262 39.6503 37.7516 41.3709 42.8388ZM21.6836 18.1032C14.1933 15.5147 7.02856 16.0958 7.02856 16.0958C7.02856 16.0958 13.1507 16.6419 20.4015 19.981L21.6836 18.1032Z" fill="#FEFEFE"/>
<path fill-rule="evenodd" clip-rule="evenodd" d="M37.9923 47.6039C37.9923 47.6039 36.6462 40.1136 31.9343 33.2357L30.8017 34.8953C33.7159 38.277 36.2496 42.4497 37.9923 47.6039V47.6039ZM18.3546 22.7723C10.7544 20.0976 3.43335 20.6917 3.43335 20.6917C3.43335 20.6917 9.68664 21.2508 17.0534 24.6783L18.3546 22.7723V22.7723Z" fill="#FEFEFE"/>
<path fill-rule="evenodd" clip-rule="evenodd" d="M18.0092 33.4125L4.91846 45.5163L6.23715 46.5452L18.0092 33.4125Z" fill="#FEFEFE"/>
<path fill-rule="evenodd" clip-rule="evenodd" d="M11.0276 44.0314L21.7411 32.4774L12.4065 45.1945L11.0276 44.0314Z" fill="#FEFEFE"/>
<path fill-rule="evenodd" clip-rule="evenodd" d="M21.6069 36.314L11.9871 48.549L13.4057 49.4711L21.6069 36.314Z" fill="#FEFEFE"/>
</svg>
