<svg width="468" height="468" viewBox="0 0 468 468" fill="none" xmlns="http://www.w3.org/2000/svg">
<path d="M233.111 454.943C354.907 454.943 453.642 397.938 453.642 327.619C453.642 257.3 354.907 200.295 233.111 200.295C111.315 200.295 12.5798 257.3 12.5798 327.619C12.5798 397.938 111.315 454.943 233.111 454.943Z" fill="white"/>
<path d="M359.761 371.798C345.3 363.449 345.3 349.914 359.761 341.565C374.222 333.216 397.669 333.216 412.13 341.565C426.591 349.914 426.591 363.449 412.13 371.798C397.669 380.147 374.222 380.147 359.761 371.798Z" fill="#E0E0E0"/>
<path d="M65.6322 372.959L27.5932 351C25.4497 349.764 25.4497 347.752 27.5932 346.517L248.854 218.771C250.057 218.162 251.386 217.844 252.734 217.844C254.082 217.844 255.411 218.162 256.614 218.771L294.662 240.73C296.805 241.965 296.805 243.978 294.662 245.213L73.401 372.959C72.1969 373.568 70.8662 373.886 69.5166 373.886C68.167 373.886 66.8364 373.568 65.6322 372.959Z" fill="#E0E0E0"/>
<path d="M202.363 333.815L235.067 314.908C238.437 312.961 240.122 310.415 240.122 307.86C240.122 305.304 240.122 303.311 240.122 303.311L206.201 284.179C205.253 283.566 204.464 282.738 203.898 281.762C203.332 280.786 203.005 279.69 202.944 278.563V238.231L145.848 271.234V311.548C145.913 312.673 146.242 313.768 146.808 314.743C147.374 315.719 148.161 316.548 149.105 317.164L177.971 333.787C184.692 337.709 195.624 337.709 202.363 333.815Z" fill="#3A7EFF"/>
<g opacity="0.6">
<path opacity="0.6" d="M202.363 333.815L235.067 314.908C238.437 312.961 240.122 310.415 240.122 307.86C240.122 305.304 240.122 303.311 240.122 303.311L206.201 284.179C205.253 283.566 204.464 282.738 203.898 281.762C203.332 280.786 203.005 279.69 202.944 278.563V238.231L145.848 271.234V311.548C145.913 312.673 146.242 313.768 146.808 314.743C147.374 315.719 148.161 316.548 149.105 317.164L177.971 333.787C184.692 337.709 195.624 337.709 202.363 333.815Z" fill="black"/>
</g>
<path opacity="0.3" d="M159.541 318.689V323.22L149.077 317.182C148.133 316.567 147.347 315.738 146.782 314.762C146.218 313.786 145.891 312.692 145.829 311.566V271.234L156.705 264.954C156.93 267.715 157.173 270.57 157.407 273.378L149.76 277.777V309.273C149.821 310.4 150.147 311.496 150.714 312.473C151.28 313.449 152.069 314.277 153.017 314.889L159.541 318.689Z" fill="black"/>
<path d="M149.76 309.282C149.824 310.408 150.153 311.504 150.719 312.479C151.284 313.455 152.072 314.284 153.017 314.898L177.934 329.257C184.673 333.141 195.605 333.15 202.354 329.257L235.114 310.35C241.862 306.456 241.862 300.147 235.114 296.253L210.179 281.895C209.236 281.279 208.45 280.449 207.886 279.474C207.322 278.498 206.995 277.404 206.931 276.279V244.773L149.835 277.777L149.76 309.282Z" fill="#3A7EFF"/>
<path opacity="0.3" d="M149.76 309.282C149.824 310.408 150.153 311.504 150.719 312.479C151.284 313.455 152.072 314.284 153.017 314.898L177.934 329.257C184.673 333.141 195.605 333.15 202.354 329.257L235.114 310.35C241.862 306.456 241.862 300.147 235.114 296.253L210.179 281.895C209.236 281.279 208.45 280.449 207.886 279.474C207.322 278.498 206.995 277.404 206.931 276.279V244.773L149.835 277.777L149.76 309.282Z" fill="black"/>
<path opacity="0.5" d="M216.778 285.742L210.142 281.914C209.198 281.297 208.413 280.468 207.849 279.493C207.285 278.517 206.958 277.423 206.894 276.298V244.773L149.798 277.777V309.282C149.862 310.408 150.19 311.504 150.756 312.479C151.322 313.455 152.109 314.284 153.055 314.898L159.607 318.642L216.778 285.742Z" fill="black"/>
<path d="M240.131 303.32V307.869C240.131 310.424 238.437 312.961 235.077 314.917L202.317 333.815C198.731 335.729 194.727 336.723 190.663 336.707V332.177C194.727 332.192 198.731 331.198 202.317 329.285L235.077 310.368C238.437 308.431 240.131 305.875 240.131 303.32Z" fill="#3A7EFF"/>
<path opacity="0.5" d="M240.131 303.32V307.869C240.131 310.424 238.437 312.961 235.077 314.917L202.317 333.815C198.731 335.729 194.727 336.723 190.663 336.707V332.177C194.727 332.192 198.731 331.198 202.317 329.285L235.077 310.368C238.437 308.431 240.131 305.875 240.131 303.32Z" fill="black"/>
<path d="M58.0321 348.435C59.2664 349.032 60.6235 349.329 61.994 349.305C63.3646 349.281 64.7102 348.935 65.9226 348.295L286.819 220.765C288.003 219.992 288.989 218.952 289.696 217.727C290.404 216.503 290.813 215.129 290.89 213.717V35.0158C290.848 33.6421 290.482 32.2978 289.821 31.0925C289.161 29.8872 288.225 28.855 287.09 28.08C285.857 27.4832 284.501 27.1857 283.132 27.2117C281.762 27.2377 280.418 27.5865 279.209 28.2298L58.3129 155.797C57.1326 156.575 56.1527 157.62 55.4533 158.848C54.7538 160.076 54.3546 161.452 54.2881 162.864V341.537C54.3298 342.899 54.6903 344.233 55.3404 345.431C55.9906 346.629 56.9125 347.658 58.0321 348.435Z" fill="#3A7EFF"/>
<path d="M65.9507 348.286L286.847 220.756C288.033 219.985 289.02 218.944 289.727 217.72C290.435 216.495 290.843 215.12 290.918 213.708V35.0157C290.918 32.423 289.093 31.3653 286.847 32.6664L65.9507 160.196C64.7658 160.968 63.7796 162.009 63.0721 163.234C62.3647 164.458 61.956 165.832 61.8792 167.244V345.936C61.8792 348.529 63.7043 349.587 65.9507 348.286Z" fill="#3A7EFF"/>
<path opacity="0.5" d="M65.9507 348.286L286.847 220.756C288.033 219.985 289.02 218.944 289.727 217.72C290.435 216.495 290.843 215.12 290.918 213.708V35.0157C290.918 32.423 289.093 31.3653 286.847 32.6664L65.9507 160.196C64.7658 160.968 63.7796 162.009 63.0721 163.234C62.3647 164.458 61.956 165.832 61.8792 167.244V345.936C61.8792 348.529 63.7043 349.587 65.9507 348.286Z" fill="black"/>
<path d="M65.3516 352.928C64.1933 353.434 62.939 353.682 61.6754 353.656C60.4118 353.63 59.1688 353.331 58.0321 352.778C56.91 351.999 55.9866 350.967 55.3363 349.766C54.686 348.564 54.3269 347.227 54.2881 345.861V329.594L61.9165 334.012V350.279C61.8697 352.647 63.3766 353.724 65.3516 352.928Z" fill="#3A7EFF"/>
<path opacity="0.5" d="M65.3516 352.928C64.1933 353.434 62.939 353.682 61.6754 353.656C60.4118 353.63 59.1688 353.331 58.0321 352.778C56.91 351.999 55.9866 350.967 55.3363 349.766C54.686 348.564 54.3269 347.227 54.2881 345.861V329.594L61.9165 334.012V350.279C61.8697 352.647 63.3766 353.724 65.3516 352.928Z" fill="black"/>
<path d="M61.8696 334.012V350.279C61.8696 352.872 63.7416 353.92 65.9412 352.629L286.837 225.099C288.017 224.33 289 223.295 289.707 222.077C290.414 220.86 290.826 219.494 290.909 218.088V201.745L61.8696 334.012Z" fill="#3A7EFF"/>
<path opacity="0.3" d="M61.8792 333.974V350.279C61.8792 352.872 63.7511 353.92 65.9507 352.629L286.847 225.099C288.025 224.329 289.006 223.294 289.711 222.076C290.416 220.859 290.827 219.493 290.909 218.088V201.745L61.8792 333.974Z" fill="black"/>
<path d="M69.5076 313.56V169.781C69.5511 168.934 69.7943 168.109 70.2172 167.374C70.6401 166.639 71.2308 166.014 71.9412 165.55L280.8 44.928C282.148 44.1511 283.243 44.7782 283.243 46.332V190.186C283.198 191.034 282.953 191.859 282.528 192.594C282.104 193.329 281.512 193.954 280.8 194.417L71.9505 315.011C70.6027 315.788 69.5076 315.151 69.5076 313.56Z" fill="#3A7EFF"/>
<path d="M69.5076 313.56V169.781C69.5511 168.934 69.7943 168.109 70.2172 167.374C70.6401 166.639 71.2308 166.014 71.9412 165.55L280.8 44.928C282.148 44.1511 283.243 44.7782 283.243 46.332V190.186C283.198 191.034 282.953 191.859 282.528 192.594C282.104 193.329 281.512 193.954 280.8 194.417L71.9505 315.011C70.6027 315.788 69.5076 315.151 69.5076 313.56Z" fill="#263238"/>
<path d="M176.389 273.059C175.277 273.782 174.352 274.758 173.688 275.906C173.025 277.054 172.642 278.343 172.57 279.667C172.57 282.101 174.283 283.093 176.389 281.876C177.502 281.152 178.428 280.176 179.092 279.025C179.756 277.875 180.138 276.585 180.208 275.259C180.208 272.825 178.495 271.842 176.389 273.059Z" fill="#3A7EFF"/>
<path opacity="0.7" d="M63.0771 163.22C62.3517 164.439 61.9371 165.818 61.8697 167.235V334.012L54.2881 329.594V162.864C54.3372 161.442 54.7497 160.056 55.4862 158.839L63.0771 163.22Z" fill="black"/>
<path opacity="0.3" d="M290.871 34.3418C290.581 32.2452 288.887 31.5338 286.837 32.6664L65.9412 160.196C64.7435 160.945 63.755 161.986 63.0677 163.22L55.4299 158.811C56.1218 157.577 57.1133 156.538 58.3128 155.788L279.209 28.2672C280.42 27.6239 281.765 27.275 283.136 27.249C284.507 27.223 285.865 27.5205 287.099 28.1174C288.137 28.8244 289.011 29.746 289.661 30.8199C290.312 31.8937 290.725 33.0948 290.871 34.3418Z" fill="black"/>
<path d="M302.787 56.3378C302.458 56.1732 302.092 56.101 301.726 56.129C301.359 56.157 301.008 56.2842 300.709 56.4969L92.2802 176.904C91.4578 177.448 90.775 178.178 90.2872 179.035C89.7993 179.892 89.5201 180.852 89.4722 181.837V324.736C89.443 325.218 89.5388 325.7 89.7503 326.135C89.9618 326.569 90.2819 326.942 90.6796 327.216C91.1383 327.469 93.5906 328.892 94.3207 329.285C94.579 329.416 94.8676 329.477 95.157 329.461C95.4464 329.444 95.7263 329.351 95.968 329.191L304.35 208.784C305.172 208.24 305.855 207.51 306.343 206.653C306.831 205.796 307.11 204.836 307.158 203.851V60.2129C307.2 59.8499 307.139 59.4824 306.984 59.1518C306.829 58.8211 306.584 58.5403 306.278 58.3409C305.81 58.032 303.311 56.6467 302.787 56.3378Z" fill="#3A7EFF"/>
<path d="M95.9213 178.926L304.359 58.5655C305.932 57.6295 307.167 58.397 307.167 60.2129V203.851C307.119 204.836 306.84 205.796 306.352 206.653C305.864 207.51 305.182 208.24 304.359 208.784L95.9213 329.191C94.3488 330.127 93.1133 328.62 93.1133 326.804V183.858C93.1627 182.874 93.4425 181.915 93.9302 181.058C94.4179 180.201 95.0999 179.471 95.9213 178.926Z" fill="#FAFAFA"/>
<path d="M305.632 59.1084C306.184 59.1084 306.269 59.801 306.269 60.2129V203.851C306.218 204.676 305.976 205.478 305.562 206.193C305.148 206.908 304.572 207.516 303.882 207.97L95.472 328.377C95.3321 328.468 95.1706 328.519 95.004 328.527C94.4798 328.527 94.068 327.722 94.068 326.804V183.858C94.1132 183.034 94.3478 182.231 94.7536 181.512C95.1594 180.793 95.7255 180.177 96.408 179.712L304.827 59.3705C305.068 59.2149 305.346 59.1246 305.632 59.1084ZM305.632 58.1724C305.181 58.1916 304.743 58.327 304.359 58.5655L95.9213 178.926C95.0999 179.471 94.4179 180.201 93.9302 181.058C93.4425 181.915 93.1627 182.874 93.1133 183.858V326.804C93.1133 328.246 93.9182 329.463 94.9853 329.463C95.3158 329.456 95.6387 329.363 95.9213 329.191L304.35 208.784C305.172 208.24 305.855 207.51 306.343 206.653C306.831 205.796 307.11 204.836 307.158 203.851V60.2129C307.158 58.9212 306.521 58.1724 305.585 58.1724H305.632Z" fill="#E0E0E0"/>
<path d="M90.6235 327.216C90.9324 327.375 93.1507 328.639 94.1242 329.201C93.7746 328.911 93.4978 328.543 93.3157 328.127C93.1337 327.711 93.0516 327.258 93.0758 326.804V193.19L89.4254 191.056V324.736C89.3952 325.217 89.4896 325.699 89.6994 326.133C89.9093 326.568 90.2275 326.941 90.6235 327.216Z" fill="#F0F0F0"/>
<path d="M307.205 60.1848C307.205 58.3877 305.922 57.6576 304.397 58.5655L95.9213 178.926C95.0999 179.471 94.4179 180.201 93.9302 181.058C93.4425 181.915 93.1627 182.874 93.1133 183.858V193.218L307.205 69.5448V60.1848Z" fill="#3A7EFF"/>
<g opacity="0.4">
<path opacity="0.4" d="M304.359 58.5655L95.9213 178.916C95.0847 179.444 94.3956 180.175 93.9182 181.041L90.2959 178.935C90.7724 178.099 91.4557 177.4 92.2802 176.904L300.709 56.4969C301.007 56.2828 301.358 56.1539 301.724 56.1242C302.09 56.0945 302.458 56.1652 302.787 56.3285C303.292 56.6467 305.66 57.9852 306.269 58.3128C305.954 58.1961 305.615 58.1581 305.282 58.2021C304.95 58.2462 304.633 58.3709 304.359 58.5655Z" fill="white"/>
</g>
<path opacity="0.15" d="M89.4255 191.066V181.79C89.464 180.779 89.7639 179.795 90.296 178.935L93.9277 181.032C93.4032 181.877 93.1095 182.845 93.0759 183.84V193.2L89.4255 191.066Z" fill="black"/>
<path d="M263.25 167.937L138.416 240.009C137.809 240.403 137.303 240.935 136.94 241.561C136.578 242.187 136.368 242.89 136.328 243.613V279.405C136.368 280.128 136.578 280.831 136.94 281.457C137.303 282.083 137.809 282.615 138.416 283.009L142.057 285.106C142.704 285.433 143.419 285.604 144.144 285.604C144.869 285.604 145.584 285.433 146.231 285.106L271.047 213.034C271.654 212.638 272.16 212.104 272.522 211.477C272.885 210.849 273.094 210.144 273.134 209.421V173.619C273.095 172.896 272.885 172.193 272.522 171.567C272.159 170.941 271.654 170.409 271.047 170.015L267.396 167.918C266.752 167.596 266.041 167.43 265.321 167.434C264.601 167.437 263.891 167.609 263.25 167.937Z" fill="#3A7EFF"/>
<path opacity="0.5" d="M273.134 173.3C272.984 172.224 272.114 171.831 271.066 172.439L146.231 244.511C145.616 244.894 145.109 245.429 144.762 246.065L136.946 241.554C137.296 240.927 137.798 240.4 138.406 240.018L263.25 167.946C263.895 167.618 264.609 167.448 265.333 167.448C266.056 167.448 266.77 167.618 267.415 167.946L271.066 170.043C271.622 170.408 272.094 170.887 272.451 171.449C272.808 172.01 273.041 172.642 273.134 173.3Z" fill="white"/>
<path d="M145.876 285.283C145.264 285.524 144.609 285.634 143.953 285.605C143.297 285.576 142.654 285.409 142.066 285.115L138.416 283.018C137.81 282.623 137.305 282.091 136.942 281.465C136.58 280.839 136.369 280.137 136.328 279.415V243.622C136.356 242.891 136.569 242.18 136.946 241.554L144.762 246.065C144.382 246.683 144.169 247.39 144.144 248.115V283.917C144.144 285.106 144.893 285.658 145.876 285.283Z" fill="#263238"/>
<path d="M146.231 244.511L271.065 172.439C272.217 171.775 273.153 172.308 273.153 173.637V209.439C273.113 210.163 272.903 210.868 272.541 211.495C272.178 212.123 271.673 212.656 271.065 213.052L146.25 285.124C145.099 285.789 144.163 285.246 144.163 283.917V248.124C144.2 247.402 144.407 246.699 144.766 246.071C145.126 245.444 145.627 244.909 146.231 244.511Z" fill="#3A7EFF"/>
<path d="M230.153 187.05L138.425 240.018C137.817 240.4 137.315 240.927 136.965 241.554L144.78 246.065C145.128 245.429 145.634 244.894 146.25 244.511L237.978 191.552L230.153 187.05Z" fill="#455A64"/>
<path d="M237.959 191.552L146.231 244.511C145.624 244.907 145.119 245.441 144.756 246.068C144.393 246.696 144.184 247.4 144.144 248.124V283.908C144.144 285.237 145.08 285.779 146.231 285.115L237.959 232.156V191.552Z" fill="#37474F"/>
<path d="M167.385 240.15L214.718 212.828C216.675 211.695 218.266 212.5 218.266 214.625C218.178 215.818 217.811 216.974 217.193 217.999C216.575 219.023 215.724 219.888 214.709 220.522L167.385 247.853C165.429 248.985 163.828 248.18 163.828 246.056C163.916 244.861 164.284 243.704 164.902 242.678C165.52 241.652 166.371 240.786 167.385 240.15Z" fill="#3A7EFF"/>
<path d="M177.082 249.201C177.091 249.191 177.101 249.183 177.114 249.177C177.126 249.172 177.139 249.169 177.152 249.169C177.165 249.169 177.178 249.172 177.191 249.177C177.203 249.183 177.213 249.191 177.222 249.201C177.264 249.264 177.284 249.34 177.278 249.416V254.742C177.279 255.256 177.235 255.77 177.147 256.277C177.07 256.74 176.938 257.192 176.754 257.625C176.586 258.021 176.366 258.392 176.099 258.729C175.836 259.042 175.519 259.305 175.163 259.506C174.884 259.688 174.56 259.785 174.227 259.787C174.1 259.777 173.976 259.741 173.864 259.681C173.751 259.622 173.652 259.54 173.572 259.44C173.366 259.165 173.231 258.844 173.179 258.504C173.089 258.051 173.048 257.59 173.057 257.129V251.793C173.057 251.7 173.076 251.608 173.113 251.522C173.136 251.445 173.186 251.378 173.254 251.335L173.843 250.988C173.862 250.971 173.887 250.961 173.913 250.961C173.94 250.961 173.965 250.971 173.984 250.988C174.027 251.051 174.047 251.128 174.04 251.204V256.464C174.033 256.753 174.061 257.043 174.124 257.325C174.15 257.506 174.228 257.675 174.349 257.812C174.391 257.862 174.444 257.902 174.504 257.928C174.564 257.954 174.63 257.965 174.695 257.962C174.855 257.951 175.01 257.899 175.144 257.812C175.311 257.712 175.462 257.589 175.594 257.447C175.74 257.279 175.86 257.089 175.949 256.885C176.055 256.645 176.133 256.394 176.183 256.136C176.238 255.827 176.263 255.514 176.258 255.2V249.931C176.261 249.837 176.283 249.744 176.324 249.659C176.347 249.582 176.396 249.516 176.464 249.472L177.082 249.201Z" fill="#FAFAFA"/>
<path d="M180.751 254.236C180.756 254.168 180.74 254.099 180.704 254.04C180.682 254.015 180.654 253.997 180.623 253.985C180.592 253.974 180.559 253.97 180.526 253.974C180.411 253.959 180.295 253.959 180.18 253.974L179.637 254.077C179.462 254.121 179.279 254.121 179.104 254.077C178.966 254.033 178.848 253.944 178.767 253.824C178.675 253.673 178.615 253.504 178.589 253.328C178.498 252.827 178.498 252.313 178.589 251.812C178.659 251.525 178.76 251.245 178.888 250.979C179.017 250.713 179.174 250.462 179.356 250.23C179.534 250.009 179.749 249.822 179.993 249.678C180.19 249.558 180.41 249.481 180.639 249.453C180.805 249.436 180.972 249.472 181.116 249.556C181.253 249.64 181.361 249.764 181.425 249.912C181.5 250.087 181.542 250.274 181.547 250.464C181.556 250.558 181.537 250.653 181.49 250.736C181.468 250.813 181.418 250.879 181.35 250.923L180.788 251.25C180.763 251.265 180.734 251.273 180.704 251.273C180.675 251.273 180.646 251.265 180.62 251.25L180.498 251.157C180.45 251.119 180.391 251.096 180.33 251.091C180.21 251.105 180.094 251.146 179.993 251.213C179.846 251.302 179.716 251.416 179.609 251.55C179.496 251.697 179.436 251.879 179.441 252.065C179.427 252.136 179.427 252.209 179.441 252.28C179.459 252.306 179.482 252.329 179.51 252.345C179.537 252.361 179.568 252.371 179.6 252.374C179.702 252.391 179.806 252.391 179.909 252.374L180.433 252.28C180.873 252.196 181.172 252.28 181.369 252.523C181.575 252.87 181.67 253.272 181.64 253.675C181.638 253.953 181.6 254.23 181.528 254.498C181.454 254.79 181.347 255.073 181.21 255.341C181.072 255.618 180.899 255.876 180.695 256.108C180.501 256.336 180.27 256.529 180.012 256.679C179.806 256.811 179.572 256.891 179.328 256.913C179.152 256.919 178.979 256.87 178.832 256.773C178.688 256.674 178.577 256.534 178.514 256.37C178.438 256.193 178.4 256.002 178.402 255.809C178.393 255.712 178.412 255.614 178.458 255.528C178.481 255.451 178.531 255.384 178.598 255.341L179.16 255.013C179.235 255.013 179.291 254.966 179.328 255.013L179.45 255.144C179.475 255.172 179.505 255.195 179.539 255.211C179.573 255.227 179.609 255.236 179.647 255.238C179.778 255.239 179.907 255.196 180.012 255.116C180.181 255.02 180.332 254.897 180.461 254.751C180.525 254.674 180.578 254.589 180.62 254.498C180.686 254.424 180.731 254.334 180.751 254.236Z" fill="#FAFAFA"/>
<path d="M182.66 251.7C182.659 251.214 182.699 250.728 182.782 250.249C182.86 249.798 182.983 249.356 183.147 248.929C183.285 248.547 183.474 248.185 183.709 247.853C183.905 247.568 184.16 247.328 184.458 247.151C184.675 247.005 184.939 246.948 185.197 246.992C185.426 247.045 185.626 247.182 185.759 247.375C185.935 247.629 186.059 247.916 186.124 248.218C186.213 248.611 186.257 249.013 186.255 249.416V249.996C186.258 250.094 186.235 250.191 186.189 250.277C186.166 250.354 186.116 250.421 186.049 250.464L183.615 251.878C183.609 252.042 183.632 252.207 183.681 252.364C183.717 252.47 183.782 252.564 183.868 252.636C183.945 252.697 184.042 252.727 184.139 252.72C184.252 252.707 184.361 252.668 184.458 252.608C184.599 252.531 184.726 252.429 184.832 252.308C184.928 252.2 185.01 252.081 185.075 251.952C185.115 251.879 185.159 251.807 185.206 251.737C185.247 251.69 185.294 251.649 185.347 251.616L185.927 251.279C185.947 251.263 185.972 251.254 185.997 251.254C186.023 251.254 186.048 251.263 186.067 251.279C186.092 251.308 186.11 251.343 186.12 251.38C186.129 251.417 186.131 251.456 186.124 251.494C186.113 251.676 186.076 251.856 186.011 252.027C185.931 252.287 185.824 252.538 185.693 252.776C185.547 253.05 185.371 253.308 185.169 253.544C184.968 253.785 184.727 253.99 184.458 254.152C184.236 254.297 183.971 254.36 183.709 254.33C183.479 254.275 183.278 254.134 183.147 253.937C182.963 253.653 182.839 253.334 182.782 253.001C182.697 252.572 182.656 252.136 182.66 251.7ZM184.458 248.714C184.314 248.791 184.189 248.9 184.093 249.032C183.989 249.163 183.904 249.308 183.84 249.463C183.774 249.617 183.721 249.777 183.681 249.94C183.648 250.088 183.626 250.238 183.615 250.389L185.263 249.453C185.253 249.324 185.234 249.196 185.206 249.07C185.192 248.957 185.147 248.85 185.075 248.761C185.047 248.72 185.011 248.686 184.969 248.66C184.927 248.635 184.881 248.618 184.832 248.611C184.699 248.6 184.566 248.636 184.458 248.714Z" fill="#FAFAFA"/>
<path d="M189.194 246.102C188.91 246.264 188.687 246.514 188.557 246.814C188.411 247.209 188.345 247.629 188.361 248.049V251.428C188.362 251.525 188.343 251.621 188.304 251.709C188.281 251.786 188.232 251.853 188.164 251.896L187.612 252.215C187.603 252.225 187.592 252.232 187.58 252.238C187.568 252.243 187.555 252.246 187.542 252.246C187.528 252.246 187.515 252.243 187.503 252.238C187.491 252.232 187.48 252.225 187.471 252.215C187.429 252.151 187.41 252.075 187.415 251.999V245.943C187.416 245.847 187.435 245.752 187.471 245.663C187.498 245.587 187.547 245.522 187.612 245.475L188.164 245.157C188.183 245.139 188.208 245.129 188.234 245.129C188.26 245.129 188.285 245.139 188.304 245.157C188.348 245.217 188.368 245.29 188.361 245.363V245.663C188.472 245.411 188.61 245.173 188.772 244.951C188.92 244.746 189.112 244.577 189.334 244.455L189.671 244.259C189.688 244.241 189.712 244.232 189.736 244.232C189.761 244.232 189.785 244.241 189.802 244.259C189.847 244.321 189.87 244.397 189.868 244.474V245.326C189.866 245.423 189.844 245.519 189.802 245.606C189.778 245.681 189.733 245.746 189.671 245.794L189.194 246.102Z" fill="#FAFAFA"/>
<path d="M196.176 245.653C196.185 245.643 196.196 245.635 196.208 245.63C196.22 245.624 196.233 245.621 196.246 245.621C196.26 245.621 196.273 245.624 196.285 245.63C196.297 245.635 196.308 245.643 196.317 245.653C196.358 245.717 196.378 245.792 196.373 245.868V246.804C196.372 246.901 196.353 246.996 196.317 247.085C196.284 247.155 196.236 247.216 196.176 247.263L192.975 249.135C192.956 249.153 192.931 249.163 192.905 249.163C192.879 249.163 192.854 249.153 192.835 249.135C192.793 249.075 192.773 249.002 192.779 248.929V240.505C192.779 240.409 192.798 240.314 192.835 240.224C192.861 240.151 192.91 240.089 192.975 240.047L193.565 239.7C193.584 239.682 193.609 239.673 193.635 239.673C193.661 239.673 193.686 239.682 193.705 239.7C193.747 239.76 193.767 239.833 193.761 239.906V247.029L196.176 245.653Z" fill="#FAFAFA"/>
<path d="M199.05 238.727C199.26 238.581 199.515 238.512 199.77 238.53C199.99 238.548 200.194 238.648 200.341 238.811C200.516 239.011 200.644 239.248 200.716 239.504C200.816 239.835 200.872 240.178 200.884 240.524C200.884 240.599 200.884 240.702 200.884 240.823V241.544C200.884 241.656 200.884 241.759 200.884 241.844C200.866 242.251 200.809 242.655 200.716 243.051C200.629 243.437 200.504 243.814 200.341 244.174C200.193 244.51 200.001 244.825 199.77 245.11C199.573 245.369 199.328 245.588 199.05 245.756C198.833 245.897 198.578 245.966 198.32 245.953C198.103 245.934 197.903 245.834 197.758 245.672C197.578 245.479 197.45 245.244 197.384 244.989C197.284 244.657 197.227 244.314 197.215 243.968C197.215 243.894 197.215 243.8 197.215 243.678V242.958C197.215 242.836 197.215 242.733 197.215 242.658C197.226 242.248 197.279 241.84 197.374 241.441C197.465 241.052 197.594 240.673 197.758 240.309C197.907 239.975 198.095 239.661 198.32 239.373C198.518 239.111 198.766 238.892 199.05 238.727ZM199.929 241.142C199.929 240.935 199.894 240.729 199.827 240.533C199.792 240.414 199.72 240.309 199.621 240.234C199.541 240.18 199.445 240.157 199.349 240.168C199.242 240.188 199.14 240.23 199.05 240.29C198.94 240.35 198.839 240.426 198.75 240.515C198.643 240.626 198.551 240.752 198.479 240.889C198.385 241.059 198.315 241.242 198.273 241.432C198.211 241.671 198.174 241.915 198.16 242.162C198.16 242.237 198.16 242.321 198.16 242.424V243.089C198.16 243.192 198.16 243.276 198.16 243.332C198.169 243.539 198.207 243.744 198.273 243.94C198.307 244.06 198.379 244.165 198.479 244.24C198.518 244.267 198.562 244.287 198.609 244.296C198.655 244.306 198.703 244.306 198.75 244.296C198.856 244.278 198.958 244.24 199.05 244.184C199.158 244.121 199.259 244.046 199.349 243.959C199.454 243.845 199.545 243.719 199.621 243.585C199.711 243.413 199.78 243.23 199.827 243.042C199.888 242.803 199.922 242.558 199.929 242.312C199.935 242.224 199.935 242.137 199.929 242.05V241.394C199.935 241.31 199.935 241.226 199.929 241.142Z" fill="#FAFAFA"/>
<path d="M203.749 244.202C203.868 244.129 203.976 244.038 204.067 243.931C204.179 243.799 204.277 243.654 204.357 243.5C204.45 243.312 204.522 243.115 204.572 242.911C204.63 242.681 204.658 242.445 204.656 242.209V241.731C204.656 241.825 204.563 241.937 204.497 242.068C204.433 242.205 204.358 242.337 204.273 242.461C204.175 242.593 204.069 242.718 203.954 242.836C203.837 242.959 203.701 243.063 203.552 243.145C203.456 243.21 203.347 243.256 203.233 243.278C203.119 243.301 203.001 243.3 202.887 243.276C202.679 243.211 202.501 243.075 202.382 242.892C202.229 242.65 202.119 242.384 202.054 242.106C201.975 241.752 201.931 241.392 201.923 241.029C201.923 240.908 201.923 240.758 201.923 240.58C201.923 240.402 201.923 240.252 201.923 240.121C201.935 239.71 201.979 239.3 202.054 238.895C202.131 238.497 202.241 238.106 202.382 237.725C202.514 237.395 202.684 237.081 202.887 236.789C203.06 236.531 203.287 236.314 203.552 236.153C203.676 236.078 203.812 236.024 203.954 235.994C204.06 235.974 204.168 235.974 204.273 235.994C204.356 236.017 204.432 236.059 204.497 236.115C204.557 236.161 204.611 236.215 204.656 236.274V235.975C204.657 235.879 204.676 235.783 204.713 235.694C204.739 235.621 204.788 235.559 204.853 235.516L205.405 235.189C205.424 235.171 205.449 235.161 205.475 235.161C205.502 235.161 205.527 235.171 205.546 235.189C205.591 235.251 205.614 235.327 205.611 235.404V241.488C205.636 242.399 205.467 243.305 205.115 244.146C204.839 244.807 204.36 245.364 203.749 245.737C203.54 245.867 203.301 245.941 203.056 245.953C202.862 245.964 202.669 245.915 202.504 245.812C202.345 245.694 202.217 245.54 202.129 245.363C202.038 245.15 201.987 244.921 201.979 244.689C201.971 244.592 201.99 244.495 202.036 244.408C202.059 244.331 202.108 244.265 202.176 244.221L202.672 243.94C202.684 243.928 202.697 243.918 202.713 243.912C202.728 243.905 202.744 243.902 202.761 243.902C202.778 243.902 202.794 243.905 202.81 243.912C202.825 243.918 202.839 243.928 202.85 243.94C202.896 243.989 202.937 244.042 202.972 244.099C203.029 244.2 203.123 244.274 203.234 244.305C203.346 244.39 203.515 244.296 203.749 244.202ZM202.869 239.663C202.869 239.912 202.869 240.156 202.869 240.393C202.842 240.767 202.948 241.138 203.168 241.441C203.251 241.513 203.358 241.552 203.468 241.552C203.578 241.552 203.684 241.513 203.767 241.441C204.039 241.265 204.251 241.01 204.376 240.711C204.546 240.321 204.641 239.901 204.656 239.476C204.656 239.335 204.656 239.167 204.656 238.97C204.656 238.774 204.656 238.605 204.656 238.483C204.675 238.148 204.576 237.817 204.376 237.547C204.293 237.471 204.184 237.429 204.071 237.429C203.959 237.429 203.85 237.471 203.767 237.547C203.501 237.723 203.292 237.974 203.168 238.268C202.976 238.708 202.874 239.183 202.869 239.663Z" fill="#FAFAFA"/>
<path d="M207.792 231.351C207.81 231.336 207.834 231.328 207.857 231.328C207.881 231.328 207.905 231.336 207.923 231.351C207.972 231.412 207.995 231.489 207.989 231.566V232.587C207.989 232.684 207.967 232.78 207.923 232.867C207.897 232.938 207.851 232.999 207.792 233.045L207.165 233.41C207.156 233.42 207.145 233.428 207.133 233.434C207.121 233.439 207.108 233.442 207.095 233.442C207.081 233.442 207.068 233.439 207.056 233.434C207.044 233.428 207.033 233.42 207.024 233.41C207 233.382 206.982 233.35 206.97 233.314C206.959 233.279 206.955 233.241 206.959 233.204V232.184C206.958 232.087 206.981 231.99 207.024 231.903C207.051 231.83 207.1 231.768 207.165 231.726L207.792 231.351ZM207.951 240.14C207.951 240.234 207.932 240.326 207.895 240.412C207.865 240.485 207.817 240.55 207.755 240.599L207.193 240.917C207.185 240.927 207.175 240.935 207.164 240.94C207.152 240.946 207.14 240.948 207.127 240.948C207.115 240.948 207.102 240.946 207.091 240.94C207.08 240.935 207.07 240.927 207.062 240.917C207.013 240.857 206.989 240.779 206.996 240.702V234.646C206.996 234.548 207.018 234.452 207.062 234.365C207.088 234.292 207.134 234.228 207.193 234.178L207.755 233.86C207.774 233.842 207.799 233.832 207.825 233.832C207.851 233.832 207.876 233.842 207.895 233.86C207.937 233.92 207.957 233.992 207.951 234.066V240.14Z" fill="#FAFAFA"/>
<path d="M212.874 237.285C212.874 237.382 212.855 237.477 212.818 237.566C212.792 237.639 212.743 237.702 212.678 237.744L212.116 238.072C212.099 238.089 212.075 238.098 212.051 238.098C212.026 238.098 212.003 238.089 211.985 238.072C211.936 238.011 211.913 237.934 211.92 237.856V234.562C211.949 234.173 211.878 233.783 211.714 233.429C211.583 233.195 211.377 233.158 211.087 233.326C210.797 233.521 210.583 233.808 210.478 234.14C210.322 234.582 210.246 235.048 210.254 235.516V238.82C210.253 238.917 210.234 239.012 210.198 239.101C210.175 239.178 210.125 239.245 210.057 239.288L209.505 239.607C209.496 239.617 209.485 239.625 209.473 239.63C209.461 239.636 209.448 239.638 209.435 239.638C209.421 239.638 209.408 239.636 209.396 239.63C209.384 239.625 209.373 239.617 209.364 239.607C209.321 239.547 209.301 239.474 209.308 239.401V233.345C209.307 233.248 209.326 233.153 209.364 233.064C209.387 232.987 209.437 232.92 209.505 232.877L210.057 232.559C210.066 232.549 210.077 232.541 210.089 232.535C210.101 232.53 210.114 232.527 210.127 232.527C210.141 232.527 210.154 232.53 210.166 232.535C210.178 232.541 210.189 232.549 210.198 232.559C210.239 232.622 210.259 232.698 210.254 232.774V233.064C210.377 232.779 210.527 232.506 210.703 232.25C210.857 232.013 211.066 231.818 211.311 231.679C211.524 231.523 211.789 231.456 212.051 231.492C212.154 231.518 212.251 231.565 212.335 231.631C212.419 231.698 212.488 231.781 212.538 231.875C212.673 232.129 212.762 232.405 212.8 232.69C212.85 233.062 212.875 233.437 212.874 233.813V237.285Z" fill="#FAFAFA"/>
<path d="M260.086 210.038L250.998 215.28L252.411 202.532C251.316 201.951 250.623 200.538 250.623 198.507C250.623 194.885 252.832 190.682 255.547 189.147C258.261 187.612 260.461 189.24 260.461 192.891C260.404 195.039 259.792 197.135 258.682 198.975L260.086 210.038Z" fill="#455A64"/>
<path d="M260.096 210.038L252.093 205.424L250.998 215.289L260.096 210.038Z" fill="#37474F"/>
<path d="M255.528 189.119C253.549 190.456 252.073 192.416 251.335 194.688L258.664 198.919C259.773 197.079 260.386 194.982 260.442 192.835C260.461 189.212 258.261 187.556 255.528 189.119Z" fill="#37474F"/>
<path d="M211.349 146.671C208.232 144.874 203.936 145.127 199.181 147.869C189.69 153.354 181.996 166.673 181.996 177.634C181.996 183.138 183.943 186.994 187.069 188.772L193.125 192.292C196.232 194.089 200.529 193.827 205.293 191.084C214.784 185.609 222.478 172.28 222.478 161.32C222.478 155.844 220.55 151.96 217.442 150.209" fill="#3A7EFF"/>
<path d="M205.284 151.398C195.793 156.883 188.099 170.212 188.099 181.163C188.099 192.114 195.793 196.569 205.284 191.084C214.775 185.599 222.478 172.28 222.469 161.32C222.459 150.359 214.765 145.922 205.284 151.398Z" fill="#3A7EFF"/>
<path d="M214.765 175.715V176.97C212.492 181.028 209.23 184.447 205.284 186.91C201.586 189.035 198.245 189.269 195.792 187.911V185.328C195.918 182.64 196.685 180.022 198.031 177.691C199.376 175.361 201.259 173.387 203.524 171.934L206.023 170.492C208.232 169.219 210.385 169.051 212.07 170.034C213.754 171.017 214.765 173.085 214.765 175.715Z" fill="#3A7EFF"/>
<path opacity="0.4" d="M211.349 146.671L217.433 150.209C214.325 148.403 210.029 148.656 205.265 151.398C199.05 154.992 193.602 161.947 190.588 169.397L184.495 165.869C187.518 158.381 192.919 151.464 199.171 147.869C203.945 145.136 208.241 144.874 211.349 146.671Z" fill="white"/>
<path opacity="0.2" d="M192.91 192.151L187.078 188.772C183.952 186.994 182.005 183.156 182.005 177.634L188.098 181.172C188.136 186.507 189.933 190.307 192.91 192.151Z" fill="black"/>
<path opacity="0.1" d="M184.514 165.869L190.607 169.397C189.046 173.127 188.207 177.12 188.136 181.163L182.043 177.625C182.118 173.585 182.956 169.596 184.514 165.869Z" fill="black"/>
<path d="M203.112 169.903C202.531 169.909 201.959 169.76 201.455 169.472C200.848 169.067 200.361 168.505 200.046 167.846C199.731 167.187 199.6 166.455 199.667 165.728C199.747 164.023 200.234 162.361 201.087 160.883C201.94 159.404 203.135 158.151 204.572 157.229C205.149 156.769 205.852 156.493 206.589 156.438C207.325 156.383 208.061 156.552 208.7 156.922C209.339 157.292 209.852 157.846 210.171 158.512C210.489 159.178 210.6 159.925 210.488 160.655C210.407 162.36 209.919 164.021 209.066 165.499C208.213 166.978 207.019 168.231 205.583 169.154C204.84 169.618 203.987 169.876 203.112 169.903Z" fill="white"/>
<path d="M212.07 170.024C210.385 169.042 208.232 169.21 206.023 170.483L203.524 171.924C201.258 173.378 199.374 175.354 198.028 177.686C196.683 180.018 195.917 182.639 195.792 185.328V187.921C198.245 189.278 201.586 189.044 205.284 186.919C209.23 184.456 212.492 181.037 214.765 176.979V175.725C214.765 173.085 213.792 171.017 212.07 170.024Z" fill="white"/>
<path d="M404.492 331.952C404.492 331.952 405.737 321.02 411.175 312.53C416.614 304.041 424.083 298.752 431.056 298.2C438.029 297.648 443.664 304.069 436.204 308.496C428.744 312.924 415.49 317.398 409.388 333.871L404.492 331.952Z" fill="#3A7EFF"/>
<path opacity="0.1" d="M404.492 331.952C404.492 331.952 405.737 321.02 411.175 312.53C416.614 304.041 424.083 298.752 431.056 298.2C438.029 297.648 443.664 304.069 436.204 308.496C428.744 312.924 415.49 317.398 409.388 333.871L404.492 331.952Z" fill="black"/>
<path d="M406.542 329.107H406.467C406.376 329.07 406.303 328.997 406.264 328.906C406.225 328.815 406.224 328.712 406.262 328.62C413.618 310.509 427.621 302.936 434.005 301.476C434.052 301.465 434.102 301.464 434.151 301.472C434.199 301.48 434.246 301.498 434.287 301.524C434.329 301.55 434.365 301.584 434.394 301.624C434.422 301.664 434.443 301.709 434.454 301.757C434.465 301.805 434.466 301.855 434.458 301.903C434.45 301.952 434.433 301.998 434.406 302.04C434.38 302.082 434.346 302.118 434.306 302.146C434.266 302.175 434.221 302.195 434.173 302.206C427.921 303.648 414.189 311.08 406.954 328.91C406.918 328.985 406.858 329.045 406.783 329.081C406.708 329.117 406.623 329.126 406.542 329.107Z" fill="white"/>
<path d="M443.776 329.322C443.149 330.745 441.596 331.494 440.154 332.074C438.713 332.654 437.14 333.282 436.354 334.629C434.782 337.344 437.365 341.181 435.68 343.812C435.283 344.341 434.784 344.785 434.211 345.116C433.638 345.448 433.005 345.66 432.348 345.74C431.272 345.936 430.176 345.936 429.091 346.03C428.571 346.023 428.052 345.982 427.537 345.908C426.024 345.571 424.443 345.738 423.035 346.386C420.873 347.602 420.227 350.326 418.898 352.432C418.086 353.672 417.015 354.722 415.76 355.51C414.505 356.299 413.094 356.807 411.625 357C410.689 357.121 408.817 357.299 407.881 356.747C407.808 356.711 407.739 356.667 407.675 356.616C407.535 356.466 407.366 356.27 407.291 356.167C407.286 356.145 407.286 356.123 407.291 356.101C406.907 354.688 407.535 353.228 407.563 351.768V351.505C407.497 349.811 407.45 348.126 407.413 346.442C407.332 343.322 407.301 340.202 407.319 337.082C407.319 335.06 407.095 332.851 407.956 330.951C408.892 328.854 411.25 328.807 412.14 326.758C412.495 325.934 412.683 325.063 413.029 324.23C413.564 323.019 414.421 321.978 415.507 321.221C416.593 320.463 417.866 320.018 419.188 319.934C423.297 319.728 426.975 323.051 431.084 322.742C432.142 322.658 433.181 322.33 434.229 322.143C437.552 321.516 441.399 322.461 443.271 325.279C443.682 325.859 443.943 326.532 444.031 327.237C444.119 327.942 444.032 328.659 443.776 329.322Z" fill="#3A7EFF"/>
<path d="M406.879 349.615C406.791 349.589 406.716 349.529 406.671 349.449C406.625 349.368 406.613 349.273 406.636 349.184C412.308 327.9 434.716 324.848 439.986 325.204C440.032 325.206 440.077 325.218 440.119 325.238C440.161 325.258 440.198 325.287 440.229 325.322C440.259 325.357 440.283 325.397 440.297 325.441C440.312 325.485 440.317 325.532 440.313 325.578C440.304 325.669 440.26 325.753 440.19 325.812C440.12 325.872 440.03 325.902 439.939 325.896C434.8 325.531 412.86 328.536 407.31 349.371C407.284 349.46 407.224 349.535 407.144 349.58C407.063 349.626 406.969 349.638 406.879 349.615Z" fill="white"/>
<path d="M431.805 338.832C431.734 338.822 431.668 338.789 431.618 338.738C429.546 336.943 427.104 335.627 424.465 334.884C421.826 334.142 419.056 333.991 416.352 334.442C416.26 334.451 416.169 334.425 416.097 334.369C416.024 334.314 415.974 334.233 415.958 334.143C415.945 334.051 415.968 333.958 416.022 333.882C416.076 333.807 416.157 333.756 416.249 333.74C419.069 333.271 421.958 333.431 424.709 334.209C427.46 334.988 430.004 336.365 432.161 338.242C432.194 338.275 432.22 338.313 432.238 338.356C432.256 338.398 432.265 338.444 432.265 338.49C432.265 338.537 432.256 338.582 432.238 338.625C432.22 338.668 432.194 338.706 432.161 338.738C432.118 338.789 432.061 338.825 431.998 338.842C431.934 338.859 431.867 338.855 431.805 338.832Z" fill="white"/>
<path d="M352.984 74.88L355.961 76.0219V69.4699C355.961 64.2658 360.107 63.0209 364.609 65.623C369.121 68.2251 372.771 74.543 372.771 79.7472V80.6832C373.399 80.4915 374.061 80.4441 374.71 80.5446C375.358 80.6451 375.975 80.8909 376.515 81.2635C378.225 82.3783 379.647 83.8806 380.667 85.6485C381.687 87.4163 382.275 89.3999 382.384 91.4379V91.8684L386.54 94.2646C387.664 94.9985 388.6 95.9867 389.271 97.1494C389.943 98.312 390.332 99.6164 390.406 100.957C390.406 103.428 388.674 104.43 386.54 103.194L352.984 83.8095C351.859 83.0773 350.923 82.0892 350.253 80.9261C349.583 79.7629 349.197 78.4577 349.128 77.117C349.128 74.6554 350.841 73.6539 352.984 74.88Z" fill="white"/>
<path d="M392.849 69.6946L398.249 72.8114C398.22 72.5754 398.204 72.3379 398.202 72.1001V70.537C398.202 67.729 400.149 66.6245 402.564 68.0191C403.602 68.6545 404.49 69.5071 405.166 70.5182C405.559 67.0176 408.311 65.7166 411.643 67.6354C413.548 68.8744 415.133 70.5446 416.272 72.5106C417.41 74.4767 418.069 76.6833 418.195 78.9516V81.2916C418.22 82.2266 418.031 83.1548 417.643 84.006L422.136 86.5894C422.836 87.0537 423.418 87.6758 423.834 88.4057C424.25 89.1356 424.489 89.9529 424.532 90.792C424.532 92.3364 423.446 92.9635 422.108 92.196L392.849 75.348C392.141 74.8869 391.552 74.265 391.131 73.5329C390.71 72.8009 390.468 71.9795 390.424 71.136C390.424 69.5542 391.51 68.927 392.849 69.6946Z" fill="white"/>
<path d="M371.938 211.751C368.007 218.397 364.226 224.172 361.568 226.943C356.522 229.283 344.673 232.896 340.04 233.495C339.226 233.598 338.402 233.405 337.718 232.952C335.893 231.754 334.48 231.557 332.561 230.892C331.054 230.378 330.417 229.657 330.137 229.956C329.847 230.296 329.701 230.736 329.731 231.182C329.76 231.628 329.963 232.045 330.296 232.343C331.016 233.027 331.814 233.624 332.673 234.122C330.618 234.632 328.474 234.67 326.402 234.234C322.387 233.176 320.496 235.104 323.21 239.466C324.146 241.02 328.003 243.519 335.753 242.845C338.517 242.696 341.271 242.384 343.999 241.909C351.431 240.318 359.696 238.783 364.778 237.229C366.669 236.486 368.361 235.313 369.72 233.803C378.266 224.06 381.102 217.115 384.846 210.806L384.528 200.51C378.462 200.304 375.224 206.191 371.938 211.751Z" fill="#FFA8A7"/>
<path d="M385.567 200.304C383.808 200.057 382.015 200.295 380.382 200.993C378.749 201.691 377.337 202.821 376.3 204.263C372.144 209.589 364.787 222.375 364.787 222.375C364.787 222.375 367.193 228.786 373.689 229.863L384.125 215.767C384.125 215.767 389.067 205.976 385.567 200.304Z" fill="#455A64"/>
<path d="M408.134 344.017H401.329V356.148H408.134V344.017Z" fill="#FFA8A7"/>
<path d="M384.546 343.372L377.751 343.615L377.405 330.773L384.546 330.53V343.372Z" fill="#FFA8A7"/>
<path d="M409.088 239.008C409.088 245.766 408.096 300.213 408.096 300.213C408.246 302.16 409.968 305.754 409.622 313.232C409.107 323.388 408.424 350.083 408.424 350.083C407.256 350.68 405.967 351.005 404.655 351.031C403.343 351.057 402.042 350.784 400.851 350.232C400.851 350.232 395.329 312.792 394.112 302.768C393.045 293.979 390.312 264.888 390.312 264.888L386.634 299.277C387.413 302.966 387.697 306.744 387.476 310.509C387.158 315.189 384.968 339.412 384.968 339.412C383.792 340.106 382.474 340.523 381.113 340.631C379.753 340.74 378.385 340.538 377.115 340.039C377.115 340.039 373.239 303.535 373.165 299.249C373.071 294.381 375.43 238.951 375.43 238.951L409.088 239.008Z" fill="#37474F"/>
<path d="M401.329 352.647V351.636C400.674 351.927 399.167 357.936 396.462 360.5C394.318 362.541 391.398 364.89 390.649 367.165C389.9 369.439 394.721 370.834 396.733 370.469C399.054 370.038 403.098 368.325 404.109 366.725C405.12 365.124 405.597 362.803 406.421 361.642C407.244 360.482 409.144 359.19 409.584 357.842C409.722 356.581 409.591 355.305 409.201 354.098C408.882 352.844 408.545 351.468 408.134 351.59V352.357C407.174 353.145 405.968 353.569 404.727 353.555C403.734 353.64 401.319 353.434 401.329 352.647Z" fill="#263238"/>
<path d="M377.676 341.425C377.321 341.425 377.03 341.958 376.253 342.838C375.098 344.053 373.747 345.066 372.257 345.833C369.711 347.162 364.769 349.203 362.513 350.261C361.109 350.916 361.175 352.675 362.625 353.677C364.076 354.678 367.567 355.399 371.761 354.426C374.045 353.892 377.021 351.693 378.912 351.814C380.802 351.936 384.312 351.899 385.707 350.878C387.102 349.858 386.54 347.743 386.147 345.918C385.716 343.914 385.211 340.798 384.546 340.938V341.64C383.732 342.932 379.511 343.456 377.714 342.51L377.676 341.425Z" fill="#263238"/>
<path d="M390.312 264.888C386.772 263.729 383.536 261.795 380.84 259.225C380.84 259.225 382.712 262.791 388.103 266.114L386.943 296.824L390.312 264.888Z" fill="#263238"/>
<path d="M405.288 201.296C405.288 201.296 410.904 202.588 410.502 212.734L409.332 228.88V253.122C404.333 258.795 382.188 258.383 374.559 252.673C374.559 252.673 375.42 223.985 375.935 212.94C376.3 205.096 378.107 201.146 385.819 200.285L395.301 200.697L405.288 201.296Z" fill="#3A7EFF"/>
<path d="M398.137 180.217C398.169 181.576 397.932 182.927 397.44 184.194C396.948 185.46 396.209 186.616 395.268 187.596C394.326 188.576 393.2 189.359 391.955 189.902C390.709 190.444 389.368 190.735 388.01 190.757C382.394 190.757 379.099 185.908 377.882 180.217C375.636 169.8 382.412 169.669 388.01 169.669C390.751 169.725 393.358 170.868 395.257 172.846C397.156 174.824 398.192 177.476 398.137 180.217Z" fill="#263238"/>
<path d="M403.304 184.476C403.304 184.476 401.75 192.077 401.123 193.331C400.729 194.086 400.058 194.659 399.251 194.931L399.363 189.587L403.304 184.476Z" fill="#263238"/>
<path d="M401.347 173.591C401.347 173.591 402.461 173.31 403.65 175.163C404.661 176.745 404.895 180.302 403.304 184.523L400.374 184.879L401.347 173.591Z" fill="#263238"/>
<path d="M402.424 175.135L406.018 175.2C406.043 174.968 406.019 174.733 405.948 174.511C405.878 174.288 405.762 174.082 405.608 173.906C405.454 173.731 405.266 173.588 405.055 173.489C404.843 173.39 404.614 173.335 404.38 173.328C403.889 173.336 403.417 173.524 403.056 173.857C402.695 174.191 402.47 174.646 402.424 175.135Z" fill="#263238"/>
<path d="M402.864 174.283L405.522 171.728C405.369 171.547 405.18 171.4 404.967 171.297C404.754 171.193 404.522 171.134 404.286 171.124C404.049 171.115 403.813 171.154 403.593 171.24C403.372 171.327 403.172 171.457 403.004 171.625C402.652 171.97 402.442 172.434 402.416 172.927C402.39 173.419 402.55 173.903 402.864 174.283Z" fill="#263238"/>
<path d="M399.494 184.832C400.084 185.197 400.917 184.027 401.647 183.231C402.377 182.436 404.642 181.706 405.822 184.289C407.001 186.872 404.989 189.428 403.304 190.27C400.281 191.768 399.326 189.587 399.326 189.587L399.073 201.624C394.824 208.176 385.183 207.97 388.655 201.306V197.646C387.227 197.883 385.776 197.959 384.331 197.87C381.972 197.496 380.494 195.558 379.773 192.9C378.631 188.632 378.191 185.188 379.164 176.792C380.231 167.6 390.509 167.497 396.012 171.176C401.516 174.854 399.494 184.832 399.494 184.832Z" fill="#FFA8A7"/>
<path d="M386.69 175.36C389.142 175.116 391.566 174.611 394.028 174.424C394.559 174.359 395.097 174.385 395.619 174.498C397.491 175.013 397.267 177.204 397.566 178.729C398.081 181.369 398.502 185.833 399.494 185.852C399.794 185.852 400.917 183.915 401.647 183.222C402.048 182.625 402.275 181.928 402.302 181.21C402.489 180.124 402.583 179.01 402.667 177.906C402.742 176.97 402.836 176.034 402.836 175.098C402.879 174.04 402.794 172.981 402.583 171.943C402.348 171.061 401.898 170.25 401.273 169.584L401.085 169.379C399.852 168.089 398.354 167.08 396.696 166.421C394.309 165.527 391.806 164.981 389.264 164.802C386.725 164.622 384.198 164.309 381.692 163.866C381.548 163.824 381.395 163.824 381.252 163.866C381.15 163.922 381.064 164.003 381.002 164.101C380.94 164.199 380.903 164.311 380.896 164.427C380.793 165.009 380.857 165.608 381.081 166.154C381.305 166.701 381.679 167.173 382.16 167.516C380.465 167.647 378.519 166.767 376.89 166.318C376.758 166.262 376.616 166.233 376.473 166.233C376.33 166.233 376.189 166.262 376.057 166.318C375.893 166.432 375.777 166.602 375.729 166.795C375.611 167.235 375.595 167.696 375.682 168.143C375.832 169.498 376.335 170.789 377.143 171.887C378.404 173.529 380.186 174.695 382.197 175.191C383.677 175.477 385.192 175.533 386.69 175.36Z" fill="#263238"/>
<path d="M388.665 197.646C388.665 197.646 393.925 196.541 395.76 195.521C396.852 194.923 397.74 194.01 398.306 192.9C398.029 194.015 397.536 195.065 396.855 195.989C395.516 197.786 388.665 199.097 388.665 199.097V197.646Z" fill="#F28F8F"/>
<path d="M389.928 183.456C389.918 183.745 390.023 184.026 390.219 184.238C390.416 184.45 390.688 184.576 390.977 184.589C391.206 184.607 391.436 184.557 391.636 184.443C391.836 184.329 391.996 184.157 392.097 183.95C392.198 183.743 392.234 183.511 392.2 183.283C392.166 183.056 392.065 182.844 391.908 182.675C391.752 182.506 391.548 182.388 391.324 182.337C391.1 182.286 390.865 182.304 390.651 182.388C390.437 182.473 390.254 182.62 390.125 182.81C389.996 183.001 389.927 183.226 389.928 183.456Z" fill="#263238"/>
<path d="M391.613 178.916L393.869 180.217C394.033 179.897 394.07 179.526 393.973 179.179C393.876 178.832 393.651 178.534 393.345 178.345C393.195 178.262 393.03 178.21 392.859 178.193C392.688 178.177 392.516 178.196 392.353 178.25C392.19 178.303 392.04 178.39 391.913 178.505C391.785 178.62 391.683 178.76 391.613 178.916Z" fill="#263238"/>
<path d="M389.133 191.047L386.727 191.983C386.776 192.148 386.857 192.301 386.968 192.433C387.078 192.565 387.214 192.673 387.367 192.751C387.521 192.828 387.689 192.873 387.861 192.882C388.032 192.892 388.204 192.866 388.365 192.807C388.693 192.666 388.954 192.405 389.097 192.078C389.239 191.752 389.252 191.383 389.133 191.047Z" fill="#F28F8F"/>
<path d="M380.25 179.88L382.309 178.233C382.217 178.089 382.095 177.967 381.953 177.873C381.81 177.779 381.649 177.717 381.48 177.689C381.311 177.662 381.139 177.67 380.974 177.714C380.809 177.758 380.654 177.836 380.521 177.943C380.246 178.176 380.066 178.503 380.016 178.86C379.966 179.217 380.049 179.581 380.25 179.88Z" fill="#263238"/>
<path d="M381.158 183.147C381.174 183.352 381.25 183.548 381.376 183.71C381.501 183.873 381.672 183.995 381.866 184.062C382.06 184.13 382.27 184.139 382.469 184.089C382.668 184.039 382.849 183.932 382.988 183.782C383.128 183.631 383.221 183.443 383.255 183.24C383.289 183.038 383.264 182.829 383.182 182.641C383.1 182.453 382.965 182.292 382.794 182.179C382.622 182.066 382.421 182.006 382.216 182.005C382.071 182.01 381.929 182.043 381.797 182.104C381.665 182.164 381.547 182.249 381.449 182.356C381.35 182.462 381.274 182.586 381.224 182.722C381.174 182.858 381.152 183.003 381.158 183.147Z" fill="#263238"/>
<path d="M386.802 182.267L386.68 188.922L382.899 188.061L386.802 182.267Z" fill="#F28F8F"/>
<path d="M297.002 238.006L302.871 234.618L305.192 231.8L299.333 235.189L297.002 238.006Z" fill="#3A7EFF"/>
<path opacity="0.4" d="M297.002 238.006L302.871 234.618L305.192 231.8L299.333 235.189L297.002 238.006Z" fill="black"/>
<path d="M312.961 247.216L318.83 243.828L323.725 239.494L317.866 242.873L312.961 247.216Z" fill="#3A7EFF"/>
<path opacity="0.4" d="M312.961 247.216L318.83 243.828L323.725 239.494L317.866 242.873L312.961 247.216Z" fill="black"/>
<path d="M362.812 258.907C364.2 260.767 365.04 262.978 365.237 265.29C363.855 263.427 363.016 261.218 362.812 258.907ZM376.45 259.085C374.475 245.653 367.258 232.371 358.666 227.401C354.538 225.014 350.719 224.93 347.659 226.718L342.136 229.9L341.827 230.088C341.581 230.223 341.344 230.373 341.116 230.537C340.662 230.849 340.236 231.2 339.843 231.585L339.656 231.763C339.487 231.931 339.31 232.128 339.15 232.315C338.991 232.502 338.748 232.793 338.561 233.045C338.163 233.568 337.804 234.119 337.484 234.693C337.316 234.983 337.157 235.292 337.007 235.629L288.775 207.792L282.916 211.171V214.915L283.412 215.196L283.88 215.467V216.216L282.944 216.768V218.94L290.029 233.916L297.03 237.969L299.361 235.161L305.539 238.858L309.086 244.932L312.999 247.188L317.894 242.845L323.903 246.318L325.925 254.658L336.024 260.498C336.523 262.621 337.148 264.712 337.896 266.76C337.962 266.966 338.046 267.181 338.13 267.415C341.481 276.214 346.807 283.748 352.816 287.221C353.536 287.648 354.291 288.014 355.072 288.316C355.485 288.48 355.907 288.621 356.335 288.737C356.71 288.837 357.084 288.921 357.459 288.99C358.641 289.205 359.852 289.205 361.034 288.99L361.521 288.868C361.753 288.821 361.982 288.756 362.204 288.672L362.728 288.466C362.914 288.399 363.092 288.314 363.262 288.213C363.435 288.138 363.604 288.054 363.767 287.96L364.011 287.811C364.055 287.796 364.096 287.774 364.132 287.745C365.471 286.978 368.765 285.068 369.664 284.563C374.119 281.979 377.002 275.446 377.002 266.208C376.995 263.823 376.81 261.442 376.45 259.085Z" fill="#3A7EFF"/>
<path d="M361.099 270.242C358.778 268.903 356.906 264.935 356.906 261.378C356.906 257.821 358.778 256.015 361.099 257.344C363.421 258.673 365.283 262.651 365.283 266.217C365.283 269.783 363.411 271.58 361.099 270.242ZM370.581 262.464C368.616 249.042 361.399 235.75 352.797 230.79C348.81 228.487 345.122 228.318 342.127 229.9L341.818 230.088C341.572 230.223 341.334 230.373 341.106 230.537C340.653 230.849 340.227 231.2 339.834 231.585L339.646 231.763C339.478 231.931 339.3 232.128 339.141 232.315C338.982 232.502 338.738 232.793 338.551 233.045C338.154 233.568 337.794 234.119 337.475 234.693C337.306 234.983 337.147 235.292 336.997 235.629C336.125 237.438 335.495 239.355 335.125 241.329L282.906 211.171V214.915L283.402 215.196L283.87 215.467V216.216L282.934 216.768V218.94L290.02 233.916L297.021 237.969L299.352 235.161L305.529 238.858L309.077 244.932L312.989 247.188L317.884 242.845L323.893 246.318L325.915 254.658L336.024 260.498C336.523 262.621 337.148 264.712 337.896 266.76C337.962 266.966 338.046 267.181 338.13 267.415C341.481 276.214 346.807 283.748 352.816 287.221C353.536 287.648 354.291 288.014 355.072 288.316C355.485 288.48 355.906 288.621 356.335 288.737C356.71 288.837 357.084 288.921 357.458 288.99C358.64 289.205 359.852 289.205 361.034 288.99L361.521 288.868C361.753 288.821 361.982 288.756 362.204 288.672L362.728 288.466C362.914 288.399 363.092 288.314 363.262 288.213C363.435 288.138 363.603 288.054 363.767 287.96L364.01 287.811C364.055 287.796 364.096 287.774 364.132 287.745C368.4 285.049 371.143 278.61 371.143 269.596C371.127 267.208 370.939 264.825 370.581 262.464Z" fill="#3A7EFF"/>
<path opacity="0.4" d="M365.283 266.208C365.283 269.774 363.411 271.58 361.1 270.242C358.788 268.903 356.906 264.944 356.906 261.378C356.906 257.812 358.778 256.005 361.1 257.344C361.768 257.751 362.35 258.285 362.812 258.916C363.014 261.228 363.853 263.438 365.237 265.3C365.271 265.601 365.287 265.904 365.283 266.208Z" fill="black"/>
<path opacity="0.4" d="M376.983 266.198C376.983 275.437 374.1 281.97 369.645 284.553C368.709 285.059 365.452 286.968 364.113 287.736C368.382 285.04 371.124 278.6 371.124 269.587C371.114 267.202 370.933 264.822 370.581 262.464C368.616 249.042 361.399 235.75 352.797 230.79C348.81 228.487 345.122 228.318 342.127 229.9L347.649 226.718C350.71 224.93 354.529 225.014 358.656 227.401C367.258 232.371 374.475 245.653 376.44 259.085C376.797 261.439 376.978 263.817 376.983 266.198Z" fill="white"/>
<path d="M371.124 269.568C371.124 278.582 368.382 285.021 364.114 287.717C365.452 286.95 368.747 285.04 369.645 284.535C374.101 281.951 376.984 275.418 376.984 266.18C376.984 265.843 376.984 265.496 376.984 265.15L371.124 268.538C371.115 268.903 371.124 269.24 371.124 269.568Z" fill="#3A7EFF"/>
<path opacity="0.1" d="M371.124 269.568C371.124 278.582 368.382 285.021 364.114 287.717C365.452 286.95 368.747 285.04 369.645 284.535C374.101 281.951 376.984 275.418 376.984 266.18C376.984 265.843 376.984 265.496 376.984 265.15L371.124 268.538C371.115 268.903 371.124 269.24 371.124 269.568Z" fill="black"/>
<path opacity="0.15" d="M335.35 245.157V247.057L282.916 216.787L283.88 216.225V215.439L335.35 245.157Z" fill="black"/>
<path opacity="0.15" d="M335.35 245.943V247.057L282.916 216.787L283.88 216.225V216.216L335.35 245.943Z" fill="black"/>
<path opacity="0.15" d="M358.151 284.544C356.164 284.492 354.226 283.914 352.535 282.869C343.989 277.936 337.035 263.259 337.035 250.155C337.035 242.508 339.347 236.799 343.381 234.468C346.189 232.839 349.512 233.045 353.003 235.058C361.539 239.99 368.494 254.714 368.494 267.818C368.494 275.455 366.182 281.174 362.148 283.496C360.931 284.191 359.552 284.552 358.151 284.544ZM347.434 234.328C346.187 234.321 344.959 234.644 343.877 235.264C340.199 237.388 337.999 242.958 337.999 250.146C337.999 262.95 344.738 277.29 353.031 282.045C356.204 283.917 359.209 284.085 361.708 282.644C365.386 280.519 367.586 274.959 367.586 267.771C367.586 254.957 360.847 240.627 352.563 235.863C351.015 234.921 349.246 234.404 347.434 234.365V234.328Z" fill="black"/>
<path opacity="0.4" d="M336.96 235.61C336.087 237.419 335.458 239.336 335.088 241.31L282.869 211.152L288.728 207.773L336.96 235.61Z" fill="white"/>
<path d="M404.83 238.54C407.563 233.364 410.689 221.738 412.243 215.87C414.452 207.539 410.876 202.298 406.814 202.082C404.277 202.476 395.919 232.867 395.919 232.867C394.983 233.607 382.281 240.056 378.2 241.675C377.471 241.951 376.665 241.951 375.935 241.675C373.979 240.964 372.641 241.095 370.722 240.908C369.215 240.758 368.457 240.224 368.26 240.543C368.082 240.938 368.059 241.385 368.196 241.797C368.333 242.208 368.62 242.552 368.999 242.761C369.826 243.242 370.705 243.625 371.62 243.903C369.98 244.4 368.27 244.631 366.557 244.586C362.625 244.502 361.212 246.205 364.263 250.202C366.135 252.692 369.233 253.478 376.151 251.091C378.135 250.399 380.831 249.06 383.348 248.152C388.534 246.28 389.9 246.056 393.85 244.717C399.607 242.77 403.613 240.842 404.83 238.54Z" fill="#FFA8A7"/>
<path d="M405.288 201.296C407.675 201.624 409.968 202.157 411.381 204.104C412.795 206.051 413.927 208.784 412.542 216.225C411.481 221.459 410.061 226.612 408.293 231.651C408.293 231.651 402.733 234.028 396.827 228L400.889 212.294C400.889 212.294 401.544 202.082 405.288 201.296Z" fill="#455A64"/>
</svg>
